<?xml version="1.0" encoding="UTF-8"?>
<svg id="Warstwa_1" data-name="Warstwa 1" xmlns="http://www.w3.org/2000/svg" viewBox="0 0 421.96 251.09">
  <defs>
    <style>
      .cls-1 {
        fill: none;
      }

      .cls-2 {
        letter-spacing: 0em;
      }

      .cls-3 {
        letter-spacing: 0em;
      }

      .cls-4 {
        letter-spacing: 63.2em;
      }

      .cls-5 {
        letter-spacing: 63.2em;
      }

      .cls-6 {
        letter-spacing: 0em;
      }

      .cls-7 {
        letter-spacing: 0em;
      }

      .cls-8 {
        fill: #111b27;
      }

      .cls-9 {
        letter-spacing: 0em;
      }

      .cls-10 {
        letter-spacing: .19em;
      }

      .cls-11 {
        letter-spacing: .19em;
      }

      .cls-12 {
        letter-spacing: .19em;
      }

      .cls-13 {
        letter-spacing: .19em;
      }

      .cls-14 {
        letter-spacing: .19em;
      }

      .cls-15 {
        letter-spacing: .19em;
      }

      .cls-16 {
        letter-spacing: .19em;
      }

      .cls-17 {
        letter-spacing: .19em;
      }

      .cls-18 {
        letter-spacing: 0em;
      }

      .cls-19 {
        fill: #e30d2e;
      }

      .cls-20 {
        letter-spacing: 0em;
      }

      .cls-21 {
        letter-spacing: 0em;
      }

      .cls-22 {
        letter-spacing: -.01em;
      }

      .cls-23 {
        fill: #010101;
        font-family: Nunito-ExtraBold, Nunito;
        font-size: 1089.11px;
        font-weight: 700;
      }

      .cls-24 {
        letter-spacing: -.04em;
      }

      .cls-25 {
        letter-spacing: -.04em;
      }

      .cls-26 {
        letter-spacing: -.04em;
      }

      .cls-27 {
        letter-spacing: -.04em;
      }

      .cls-28 {
        letter-spacing: -.04em;
      }

      .cls-29 {
        letter-spacing: -.04em;
      }

      .cls-30 {
        letter-spacing: -.04em;
      }

      .cls-31 {
        letter-spacing: -.04em;
      }

      .cls-32 {
        letter-spacing: 0em;
      }

      .cls-33 {
        letter-spacing: -.01em;
      }

      .cls-34 {
        letter-spacing: -.01em;
      }

      .cls-35 {
        letter-spacing: 0em;
      }

      .cls-36 {
        letter-spacing: -.01em;
      }

      .cls-37 {
        letter-spacing: 0em;
      }

      .cls-38 {
        letter-spacing: 0em;
      }

      .cls-39 {
        letter-spacing: 0em;
      }
    </style>
  </defs>
  <text class="cls-23" transform="translate(-18019.92 -19970.14) scale(.04 1)"><tspan class="cls-22" x="0" y="0">F</tspan><tspan x="606.64" y="0">acilitie</tspan><tspan class="cls-32" x="3904.44" y="0">s</tspan><tspan x="4429.42" y="0">ww</tspan><tspan class="cls-26" x="6309.2" y="0">w.</tspan><tspan class="cls-34" x="7445.13" y="0">v</tspan><tspan x="8015.8" y="0">obacom.pl</tspan><tspan class="cls-12" x="13302.26" y="0"> </tspan><tspan x="13811.29" y="0">ww</tspan><tspan class="cls-27" x="15691.08" y="0">w.</tspan><tspan class="cls-39" x="16827.01" y="0">v</tspan><tspan x="17397.7" y="0">obacom.pl</tspan><tspan class="cls-11" x="22684.16" y="0"> </tspan><tspan x="23193.22" y="0">ww</tspan><tspan class="cls-27" x="25073" y="0">w.</tspan><tspan class="cls-39" x="26208.93" y="0">v</tspan><tspan x="26779.62" y="0">obacom.pl</tspan><tspan class="cls-12" x="32066.08" y="0"> </tspan><tspan x="32575.12" y="0">ww</tspan><tspan class="cls-26" x="34454.9" y="0">w.</tspan><tspan class="cls-39" x="35590.83" y="0">v</tspan><tspan x="36161.52" y="0">obacom.pl</tspan><tspan class="cls-12" x="41447.98" y="0"> </tspan><tspan x="41957.02" y="0">ww</tspan><tspan class="cls-26" x="43836.8" y="0">w.</tspan><tspan class="cls-34" x="44972.73" y="0">v</tspan><tspan class="cls-20" x="45543.4" y="0">obacom.pl</tspan><tspan class="cls-11" x="50829.86" y="0"> </tspan><tspan class="cls-20" x="51338.92" y="0">ww</tspan><tspan class="cls-27" x="53218.7" y="0">w.</tspan><tspan class="cls-39" x="54354.63" y="0">v</tspan><tspan x="54925.32" y="0">obacom.pl</tspan><tspan class="cls-12" x="60211.78" y="0"> </tspan><tspan x="60720.82" y="0">ww</tspan><tspan class="cls-26" x="62600.6" y="0">w.</tspan><tspan class="cls-39" x="63736.53" y="0">v</tspan><tspan x="64307.22" y="0">obacom.pl</tspan><tspan class="cls-12" x="69593.68" y="0"> </tspan><tspan x="70102.72" y="0">ww</tspan><tspan class="cls-26" x="71982.5" y="0">w.</tspan><tspan class="cls-34" x="73118.43" y="0">v</tspan><tspan class="cls-20" x="73689.1" y="0">obacom.pl</tspan><tspan class="cls-11" x="78975.56" y="0"> </tspan><tspan class="cls-20" x="79484.61" y="0">ww</tspan><tspan class="cls-27" x="81364.4" y="0">w.</tspan><tspan class="cls-39" x="82500.33" y="0">v</tspan><tspan x="83071.02" y="0">obacom.pl</tspan><tspan class="cls-12" x="88357.48" y="0"> </tspan><tspan x="88866.51" y="0">ww</tspan><tspan class="cls-27" x="90746.3" y="0">w.</tspan><tspan class="cls-39" x="91882.23" y="0">v</tspan><tspan x="92452.92" y="0">obacom.pl</tspan><tspan class="cls-12" x="97739.38" y="0"> </tspan><tspan x="98248.41" y="0">ww</tspan><tspan class="cls-26" x="100128.2" y="0">w.</tspan><tspan class="cls-39" x="101264.13" y="0">v</tspan><tspan x="101834.82" y="0">obacom.pl</tspan><tspan class="cls-11" x="107121.28" y="0"> </tspan><tspan x="107630.34" y="0">ww</tspan><tspan class="cls-26" x="109510.13" y="0">w.</tspan><tspan class="cls-39" x="110646.05" y="0">v</tspan><tspan class="cls-18" x="111216.75" y="0">obacom.pl</tspan><tspan class="cls-12" x="116503.21" y="0"> </tspan><tspan class="cls-18" x="117012.24" y="0">ww</tspan><tspan class="cls-26" x="118892.03" y="0">w.</tspan><tspan class="cls-39" x="120027.93" y="0">v</tspan><tspan x="120598.62" y="0">obacom.pl</tspan><tspan class="cls-12" x="125885.08" y="0"> </tspan><tspan x="126394.11" y="0">ww</tspan><tspan class="cls-26" x="128273.9" y="0">w.</tspan><tspan class="cls-39" x="129409.83" y="0">v</tspan><tspan x="129980.52" y="0">obacom.pl</tspan><tspan class="cls-11" x="135266.98" y="0"> </tspan><tspan x="135776.04" y="0">ww</tspan><tspan class="cls-26" x="137655.82" y="0">w.</tspan><tspan class="cls-39" x="138791.75" y="0">v</tspan><tspan class="cls-18" x="139362.44" y="0">obacom.pl</tspan><tspan class="cls-12" x="144648.91" y="0"> </tspan><tspan class="cls-18" x="145157.94" y="0">ww</tspan><tspan class="cls-26" x="147037.72" y="0">w.</tspan><tspan class="cls-39" x="148173.63" y="0">v</tspan><tspan x="148744.32" y="0">obacom.pl</tspan><tspan class="cls-12" x="154030.78" y="0"> </tspan><tspan x="154539.81" y="0">ww</tspan><tspan class="cls-26" x="156419.6" y="0">w.</tspan><tspan class="cls-39" x="157555.53" y="0">v</tspan><tspan x="158126.22" y="0">obacom.pl</tspan><tspan class="cls-11" x="163412.68" y="0"> </tspan><tspan x="163921.74" y="0">ww</tspan><tspan class="cls-26" x="165801.52" y="0">w.</tspan><tspan class="cls-39" x="166937.45" y="0">v</tspan><tspan class="cls-18" x="167508.14" y="0">obacom.pl</tspan><tspan class="cls-12" x="172794.61" y="0"> </tspan><tspan class="cls-18" x="173303.64" y="0">ww</tspan><tspan class="cls-26" x="175183.42" y="0">w.</tspan><tspan class="cls-39" x="176319.33" y="0">v</tspan><tspan x="176890.02" y="0">obacom.pl</tspan><tspan class="cls-12" x="182176.48" y="0"> </tspan><tspan x="182685.51" y="0">ww</tspan><tspan class="cls-27" x="184565.3" y="0">w.</tspan><tspan class="cls-39" x="185701.23" y="0">v</tspan><tspan x="186271.92" y="0">obacom.pl</tspan><tspan class="cls-11" x="191558.38" y="0"> </tspan><tspan x="192067.44" y="0">ww</tspan><tspan class="cls-26" x="193947.22" y="0">w.</tspan><tspan class="cls-39" x="195083.15" y="0">v</tspan><tspan x="195653.84" y="0">obacom.pl</tspan><tspan class="cls-12" x="200940.3" y="0"> </tspan><tspan x="201449.34" y="0">ww</tspan><tspan class="cls-26" x="203329.12" y="0">w.</tspan><tspan class="cls-34" x="204465.05" y="0">v</tspan><tspan class="cls-20" x="205035.72" y="0">obacom.pl</tspan><tspan class="cls-12" x="210322.18" y="0"> </tspan><tspan class="cls-20" x="210831.21" y="0">ww</tspan><tspan class="cls-27" x="212711" y="0">w.</tspan><tspan class="cls-39" x="213846.93" y="0">v</tspan><tspan x="214417.62" y="0">obacom.pl</tspan><tspan class="cls-17" x="219704.05" y="0"> </tspan><tspan x="220213.1" y="0">ww</tspan><tspan class="cls-30" x="222092.88" y="0">w.</tspan><tspan class="cls-36" x="223228.84" y="0">v</tspan><tspan x="223799.53" y="0">obacom.pl</tspan><tspan class="cls-17" x="229085.96" y="0"> </tspan><tspan x="229595.01" y="0">ww</tspan><tspan class="cls-26" x="231474.8" y="0">w.</tspan><tspan class="cls-36" x="232610.74" y="0">v</tspan><tspan x="233181.43" y="0">obacom.pl</tspan><tspan class="cls-12" x="238467.86" y="0"> </tspan><tspan x="238976.9" y="0">ww</tspan><tspan class="cls-30" x="240856.68" y="0">w.</tspan><tspan class="cls-34" x="241992.64" y="0">v</tspan><tspan x="242563.31" y="0">obacom.pl</tspan><tspan class="cls-17" x="247849.75" y="0"> </tspan><tspan x="248358.8" y="0">ww</tspan><tspan class="cls-30" x="250238.58" y="0">w.</tspan><tspan class="cls-36" x="251374.54" y="0">v</tspan><tspan x="251945.23" y="0">obacom.pl</tspan><tspan class="cls-17" x="257231.66" y="0"> </tspan><tspan x="257740.71" y="0">ww</tspan><tspan class="cls-26" x="259620.49" y="0">w.</tspan><tspan class="cls-36" x="260756.44" y="0">v</tspan><tspan x="261327.13" y="0">obacom.pl</tspan><tspan class="cls-12" x="266613.56" y="0"> </tspan><tspan x="267122.6" y="0">ww</tspan><tspan class="cls-30" x="269002.38" y="0">w.</tspan><tspan class="cls-34" x="270138.34" y="0">v</tspan><tspan x="270709.01" y="0">obacom.pl</tspan><tspan class="cls-17" x="275995.45" y="0"> </tspan><tspan x="276504.49" y="0">ww</tspan><tspan class="cls-30" x="278384.28" y="0">w.</tspan><tspan class="cls-36" x="279520.24" y="0">v</tspan><tspan x="280090.93" y="0">obacom.pl</tspan><tspan class="cls-17" x="285377.36" y="0"> </tspan><tspan x="285886.41" y="0">ww</tspan><tspan class="cls-30" x="287766.19" y="0">w.</tspan><tspan class="cls-36" x="288902.15" y="0">v</tspan><tspan x="289472.84" y="0">obacom.pl</tspan><tspan class="cls-12" x="294759.27" y="0"> </tspan><tspan x="295268.31" y="0">ww</tspan><tspan class="cls-26" x="297148.09" y="0">w.</tspan><tspan class="cls-36" x="298284.03" y="0">v</tspan><tspan x="298854.73" y="0">obacom.pl</tspan><tspan class="cls-17" x="304141.16" y="0"> </tspan><tspan x="304650.21" y="0">ww</tspan><tspan class="cls-30" x="306529.99" y="0">w.</tspan><tspan class="cls-34" x="307665.95" y="0">v</tspan><tspan x="308236.63" y="0">obacom.pl</tspan><tspan class="cls-17" x="313523.06" y="0"> </tspan><tspan x="314032.11" y="0">ww</tspan><tspan class="cls-30" x="315911.89" y="0">w.</tspan><tspan class="cls-36" x="317047.85" y="0">v</tspan><tspan x="317618.54" y="0">obacom.pl</tspan><tspan class="cls-12" x="322904.97" y="0"> </tspan><tspan x="323414.01" y="0">ww</tspan><tspan class="cls-26" x="325293.79" y="0">w.</tspan><tspan class="cls-36" x="326429.73" y="0">v</tspan><tspan x="327000.42" y="0">obacom.pl</tspan><tspan class="cls-10" x="332286.91" y="0"> </tspan><tspan class="cls-2" x="332795.97" y="0">ww</tspan><tspan class="cls-31" x="334675.74" y="0">w.</tspan><tspan class="cls-38" x="335811.67" y="0">v</tspan><tspan class="cls-21" x="336382.36" y="0">obacom.pl</tspan><tspan class="cls-17" x="341668.82" y="0"> </tspan><tspan x="342177.87" y="0">ww</tspan><tspan class="cls-30" x="344057.64" y="0">w.</tspan><tspan class="cls-38" x="345193.58" y="0">v</tspan><tspan x="345764.27" y="0">obacom.pl</tspan><tspan class="cls-13" x="351050.73" y="0"> </tspan><tspan x="351559.77" y="0">ww</tspan><tspan class="cls-30" x="353439.54" y="0">w.</tspan><tspan class="cls-38" x="354575.48" y="0">v</tspan><tspan x="355146.17" y="0">obacom.pl</tspan><tspan class="cls-13" x="360432.63" y="0"> </tspan><tspan x="360941.67" y="0">ww</tspan><tspan class="cls-30" x="362821.44" y="0">w.</tspan><tspan class="cls-38" x="363957.38" y="0">v</tspan><tspan x="364528.07" y="0">obacom.pl</tspan><tspan class="cls-13" x="369814.53" y="0"> </tspan><tspan class="cls-21" x="370323.57" y="0">ww</tspan><tspan class="cls-25" x="372203.34" y="0">w.</tspan><tspan class="cls-38" x="373339.28" y="0">v</tspan><tspan class="cls-2" x="373909.97" y="0">obacom.pl</tspan><tspan class="cls-13" x="379196.44" y="0"> </tspan><tspan x="379705.48" y="0">ww</tspan><tspan class="cls-30" x="381585.25" y="0">w.</tspan><tspan class="cls-38" x="382721.18" y="0">v</tspan><tspan class="cls-21" x="383291.87" y="0">obacom.pl</tspan><tspan class="cls-14" x="388578.33" y="0"> </tspan><tspan x="389087.37" y="0">ww</tspan><tspan class="cls-30" x="390967.15" y="0">w.</tspan><tspan class="cls-38" x="392103.09" y="0">v</tspan><tspan x="392673.79" y="0">obacom.pl</tspan><tspan class="cls-14" x="397960.24" y="0"> </tspan><tspan x="398469.28" y="0">ww</tspan><tspan class="cls-30" x="400349.06" y="0">w.</tspan><tspan class="cls-38" x="401485" y="0">v</tspan><tspan x="402055.7" y="0">obacom.pl</tspan><tspan class="cls-14" x="407342.15" y="0"> </tspan><tspan x="407851.19" y="0">ww</tspan><tspan class="cls-30" x="409730.97" y="0">w.</tspan><tspan class="cls-35" x="410866.91" y="0">v</tspan><tspan class="cls-9" x="411437.6" y="0">obacom.pl</tspan><tspan class="cls-14" x="416724.06" y="0"> </tspan><tspan x="417233.11" y="0">ww</tspan><tspan class="cls-30" x="419112.88" y="0">w.</tspan><tspan class="cls-38" x="420248.82" y="0">v</tspan><tspan x="420819.51" y="0">obacom.pl</tspan><tspan class="cls-15" x="426105.97" y="0"> </tspan><tspan class="cls-7" x="426615.01" y="0">ww</tspan><tspan class="cls-30" x="428494.79" y="0">w.</tspan><tspan class="cls-37" x="429630.72" y="0">v</tspan><tspan x="430201.42" y="0">obacom.pl</tspan><tspan class="cls-15" x="435487.87" y="0"> </tspan><tspan x="435996.92" y="0">ww</tspan><tspan class="cls-29" x="437876.7" y="0">w.</tspan><tspan class="cls-37" x="439012.63" y="0">v</tspan><tspan x="439583.33" y="0">obacom.pl</tspan><tspan class="cls-16" x="444869.78" y="0"> </tspan><tspan class="cls-7" x="445378.83" y="0">ww</tspan><tspan class="cls-30" x="447258.6" y="0">w.</tspan><tspan class="cls-38" x="448394.54" y="0">v</tspan><tspan class="cls-9" x="448965.23" y="0">obacom.pl</tspan><tspan class="cls-14" x="454251.69" y="0"> </tspan><tspan x="454760.73" y="0">ww</tspan><tspan class="cls-30" x="456640.51" y="0">w.</tspan><tspan class="cls-38" x="457776.45" y="0">v</tspan><tspan x="458347.14" y="0">obacom.pl</tspan><tspan class="cls-14" x="463633.59" y="0"> </tspan><tspan class="cls-9" x="464142.64" y="0">ww</tspan><tspan class="cls-28" x="466022.42" y="0">w.</tspan><tspan class="cls-38" x="467158.36" y="0">v</tspan><tspan x="467729.05" y="0">obacom.pl</tspan><tspan class="cls-14" x="473015.5" y="0"> </tspan><tspan x="473524.55" y="0">ww</tspan><tspan class="cls-30" x="475404.33" y="0">w.</tspan><tspan class="cls-38" x="476540.26" y="0">v</tspan><tspan x="477110.96" y="0">obacom.pl</tspan><tspan class="cls-14" x="482397.41" y="0"> </tspan><tspan x="482906.46" y="0">ww</tspan><tspan class="cls-30" x="484786.23" y="0">w.</tspan><tspan class="cls-38" x="485922.17" y="0">v</tspan><tspan x="486492.87" y="0">obacom.pl</tspan><tspan class="cls-14" x="491779.32" y="0"> </tspan><tspan class="cls-6" x="492288.37" y="0">ww</tspan><tspan class="cls-30" x="494168.14" y="0">w.</tspan><tspan class="cls-38" x="495304.08" y="0">v</tspan><tspan x="495874.77" y="0">obacom.pl</tspan><tspan class="cls-13" x="501161.23" y="0"> </tspan><tspan class="cls-21" x="501670.27" y="0">ww</tspan><tspan class="cls-25" x="503550.04" y="0">w.</tspan><tspan class="cls-38" x="504685.98" y="0">v</tspan><tspan class="cls-2" x="505256.67" y="0">obacom.pl</tspan><tspan class="cls-13" x="510543.13" y="0"> </tspan><tspan x="511052.17" y="0">ww</tspan><tspan class="cls-30" x="512931.95" y="0">w.</tspan><tspan class="cls-38" x="514067.88" y="0">v</tspan><tspan x="514638.57" y="0">obacom.pl</tspan><tspan class="cls-13" x="519925.03" y="0"> </tspan><tspan x="520434.07" y="0">ww</tspan><tspan class="cls-30" x="522313.85" y="0">w.</tspan><tspan class="cls-38" x="523449.78" y="0">v</tspan><tspan x="524020.47" y="0">obacom.pl</tspan><tspan class="cls-13" x="529306.93" y="0"> </tspan><tspan x="529815.97" y="0">ww</tspan><tspan class="cls-30" x="531695.75" y="0">w.</tspan><tspan class="cls-38" x="532831.68" y="0">v</tspan><tspan x="533402.37" y="0">obacom.pl</tspan><tspan class="cls-17" x="538688.83" y="0"> </tspan><tspan class="cls-2" x="539197.88" y="0">ww</tspan><tspan class="cls-31" x="541077.65" y="0">w.</tspan><tspan class="cls-38" x="542213.58" y="0">v</tspan><tspan class="cls-21" x="542784.27" y="0">obacom.pl</tspan><tspan class="cls-11" x="548070.73" y="0"> </tspan><tspan class="cls-3" x="548579.79" y="0">ww</tspan><tspan class="cls-26" x="550459.55" y="0">w.</tspan><tspan class="cls-36" x="551595.48" y="0">v</tspan><tspan class="cls-3" x="552166.17" y="0">obacom.pl</tspan><tspan class="cls-17" x="557452.57" y="0"> </tspan><tspan x="557961.61" y="0">ww</tspan><tspan class="cls-30" x="559841.4" y="0">w.</tspan><tspan class="cls-36" x="560977.35" y="0">v</tspan><tspan x="561548.05" y="0">obacom.pl</tspan><tspan class="cls-17" x="566834.48" y="0"> </tspan><tspan x="567343.53" y="0">ww</tspan><tspan class="cls-26" x="569223.31" y="0">w.</tspan><tspan class="cls-36" x="570359.27" y="0">v</tspan><tspan x="570929.96" y="0">obacom.pl</tspan><tspan class="cls-12" x="576216.39" y="0"> </tspan><tspan x="576725.43" y="0">ww</tspan><tspan class="cls-26" x="578605.21" y="0">w.</tspan><tspan class="cls-36" x="579741.15" y="0">v</tspan><tspan x="580311.84" y="0">obacom.pl</tspan><tspan class="cls-17" x="585598.28" y="0"> </tspan><tspan x="586107.33" y="0">ww</tspan><tspan class="cls-30" x="587987.11" y="0">w.</tspan><tspan class="cls-34" x="589123.07" y="0">v</tspan><tspan x="589693.74" y="0">obacom.pl</tspan><tspan class="cls-12" x="594980.18" y="0"> </tspan><tspan x="595489.21" y="0">ww</tspan><tspan class="cls-30" x="597369" y="0">w.</tspan><tspan class="cls-36" x="598504.95" y="0">v</tspan><tspan x="599075.64" y="0">obacom.pl</tspan><tspan class="cls-17" x="604362.08" y="0"> </tspan><tspan x="604871.12" y="0">ww</tspan><tspan class="cls-26" x="606750.91" y="0">w.</tspan><tspan class="cls-36" x="607886.85" y="0">v</tspan><tspan x="608457.54" y="0">obacom.pl</tspan><tspan class="cls-17" x="613743.98" y="0"> </tspan><tspan x="614253.02" y="0">ww</tspan><tspan class="cls-30" x="616132.81" y="0">w.</tspan><tspan class="cls-34" x="617268.77" y="0">v</tspan><tspan x="617839.44" y="0">obacom.pl</tspan><tspan class="cls-12" x="623125.88" y="0"> </tspan><tspan x="623634.91" y="0">ww</tspan><tspan class="cls-30" x="625514.7" y="0">w.</tspan><tspan class="cls-36" x="626650.65" y="0">v</tspan><tspan x="627221.34" y="0">obacom.pl</tspan><tspan class="cls-17" x="632507.78" y="0"> </tspan><tspan x="633016.82" y="0">ww</tspan><tspan class="cls-26" x="634896.61" y="0">w.</tspan><tspan class="cls-36" x="636032.55" y="0">v</tspan><tspan x="636603.24" y="0">obacom.pl</tspan><tspan class="cls-17" x="641889.68" y="0"> </tspan><tspan x="642398.72" y="0">ww</tspan><tspan class="cls-26" x="644278.51" y="0">w.</tspan><tspan class="cls-33" x="645414.46" y="0">v</tspan><tspan x="645985.13" y="0">obacom.pl</tspan><tspan class="cls-11" x="651271.57" y="0"> </tspan><tspan x="651780.62" y="0">ww</tspan><tspan class="cls-26" x="653660.41" y="0">w.</tspan><tspan class="cls-36" x="654796.36" y="0">v</tspan><tspan x="655367.05" y="0">obacom.pl</tspan><tspan class="cls-12" x="660653.52" y="0"> </tspan><tspan x="661162.55" y="0">ww</tspan><tspan class="cls-26" x="663042.33" y="0">w.</tspan><tspan class="cls-39" x="664178.26" y="0">v</tspan><tspan x="664748.95" y="0">obacom.pl</tspan><tspan class="cls-12" x="670035.42" y="0"> </tspan><tspan x="670544.45" y="0">ww</tspan><tspan class="cls-26" x="672424.23" y="0">w.</tspan><tspan class="cls-34" x="673560.16" y="0">v</tspan><tspan class="cls-20" x="674130.83" y="0">obacom.pl</tspan><tspan class="cls-12" x="679417.29" y="0"> </tspan><tspan class="cls-20" x="679926.32" y="0">ww</tspan><tspan class="cls-27" x="681806.11" y="0">w.</tspan><tspan class="cls-39" x="682942.06" y="0">v</tspan><tspan class="cls-18" x="683512.75" y="0">obacom.pl</tspan><tspan class="cls-12" x="688799.22" y="0"> </tspan><tspan x="689308.25" y="0">ww</tspan><tspan class="cls-26" x="691188.03" y="0">w.</tspan><tspan class="cls-39" x="692323.96" y="0">v</tspan><tspan x="692894.65" y="0">obacom.pl</tspan><tspan class="cls-12" x="698181.12" y="0"> </tspan><tspan x="698690.15" y="0">ww</tspan><tspan class="cls-26" x="700569.93" y="0">w.</tspan><tspan class="cls-34" x="701705.86" y="0">v</tspan><tspan class="cls-20" x="702276.53" y="0">obacom.pl</tspan><tspan class="cls-12" x="707562.99" y="0"> </tspan><tspan class="cls-20" x="708072.02" y="0">ww</tspan><tspan class="cls-27" x="709951.81" y="0">w.</tspan><tspan class="cls-39" x="711087.74" y="0">v</tspan><tspan x="711658.43" y="0">obacom.pl</tspan><tspan class="cls-11" x="716944.89" y="0"> </tspan><tspan x="717453.95" y="0">ww</tspan><tspan class="cls-26" x="719333.73" y="0">w.</tspan><tspan class="cls-39" x="720469.66" y="0">v</tspan><tspan x="721040.35" y="0">obacom.pl</tspan><tspan class="cls-12" x="726326.81" y="0"> </tspan><tspan x="726835.85" y="0">ww</tspan><tspan class="cls-26" x="728715.63" y="0">w.</tspan><tspan class="cls-34" x="729851.56" y="0">v</tspan><tspan class="cls-20" x="730422.23" y="0">obacom.pl</tspan><tspan class="cls-12" x="735708.69" y="0"> </tspan><tspan class="cls-20" x="736217.72" y="0">ww</tspan><tspan class="cls-27" x="738097.51" y="0">w.</tspan><tspan class="cls-39" x="739233.44" y="0">v</tspan><tspan x="739804.13" y="0">obacom.pl</tspan><tspan class="cls-11" x="745090.59" y="0"> </tspan><tspan x="745599.65" y="0">ww</tspan><tspan class="cls-27" x="747479.43" y="0">w.</tspan><tspan class="cls-39" x="748615.36" y="0">v</tspan><tspan x="749186.05" y="0">obacom.pl</tspan><tspan class="cls-12" x="754472.51" y="0"> </tspan><tspan x="754981.55" y="0">ww</tspan><tspan class="cls-26" x="756861.33" y="0">w.</tspan><tspan class="cls-39" x="757997.26" y="0">v</tspan><tspan x="758567.95" y="0">obacom.pl</tspan><tspan class="cls-12" x="763854.41" y="0"> </tspan><tspan x="764363.45" y="0">ww</tspan><tspan class="cls-26" x="766243.23" y="0">w.</tspan><tspan class="cls-39" x="767379.16" y="0">v</tspan><tspan class="cls-18" x="767949.85" y="0">obacom.pl</tspan><tspan class="cls-11" x="773236.31" y="0"> </tspan><tspan class="cls-18" x="773745.37" y="0">ww</tspan><tspan class="cls-26" x="775625.16" y="0">w.</tspan><tspan class="cls-39" x="776761.06" y="0">v</tspan><tspan x="777331.75" y="0">obacom.pl</tspan><tspan class="cls-12" x="782618.21" y="0"> </tspan><tspan x="783127.24" y="0">ww</tspan><tspan class="cls-26" x="785007.03" y="0">w.</tspan><tspan class="cls-39" x="786142.96" y="0">v</tspan><tspan x="786713.65" y="0">obacom.pl</tspan><tspan class="cls-12" x="792000.11" y="0"> </tspan><tspan x="792509.14" y="0">ww</tspan><tspan class="cls-26" x="794388.93" y="0">w.</tspan><tspan class="cls-39" x="795524.86" y="0">v</tspan><tspan class="cls-18" x="796095.55" y="0">obacom.pl</tspan><tspan class="cls-11" x="801382.01" y="0"> </tspan><tspan class="cls-18" x="801891.07" y="0">ww</tspan><tspan class="cls-26" x="803770.86" y="0">w.</tspan><tspan class="cls-39" x="804906.76" y="0">v</tspan><tspan x="805477.45" y="0">obacom.pl</tspan><tspan class="cls-12" x="810763.91" y="0"> </tspan><tspan x="811272.94" y="0">ww</tspan><tspan class="cls-26" x="813152.73" y="0">w.</tspan><tspan class="cls-39" x="814288.66" y="0">v</tspan><tspan x="814859.35" y="0">obacom.pl</tspan><tspan class="cls-12" x="820145.81" y="0"> </tspan><tspan x="820654.84" y="0">ww</tspan><tspan class="cls-26" x="822534.63" y="0">w.</tspan><tspan class="cls-39" x="823670.56" y="0">v</tspan><tspan class="cls-18" x="824241.25" y="0">obacom.pl</tspan><tspan class="cls-11" x="829527.71" y="0"> </tspan><tspan class="cls-18" x="830036.77" y="0">ww</tspan><tspan class="cls-24" x="831916.55" y="0">w.</tspan><tspan class="cls-39" x="833052.46" y="0">v</tspan><tspan class="cls-18" x="833623.15" y="0">obacom.pl</tspan><tspan class="cls-12" x="838909.61" y="0"> </tspan><tspan x="839418.64" y="0">ww</tspan><tspan class="cls-27" x="841298.43" y="0">w.</tspan><tspan class="cls-39" x="842434.36" y="0">v</tspan><tspan x="843005.05" y="0">obacom.pl</tspan><tspan class="cls-12" x="848291.51" y="0"> </tspan><tspan x="848800.54" y="0">ww</tspan><tspan class="cls-26" x="850680.33" y="0">w.</tspan><tspan class="cls-39" x="851816.26" y="0">v</tspan><tspan x="852386.95" y="0">obacom.pl</tspan><tspan class="cls-12" x="857673.41" y="0"> </tspan><tspan x="858182.44" y="0">ww</tspan><tspan class="cls-26" x="860062.23" y="0">w.</tspan><tspan class="cls-34" x="861198.16" y="0">v</tspan><tspan class="cls-20" x="861768.82" y="0">obacom.pl </tspan><tspan x="0" y="1306.93">ww</tspan><tspan class="cls-26" x="1879.79" y="1306.93">w.</tspan><tspan class="cls-39" x="3015.71" y="1306.93">v</tspan><tspan x="3586.41" y="1306.93">obacom.pl</tspan><tspan class="cls-4" x="8872.87" y="1306.93"> </tspan><tspan x="78004.71" y="1306.93">ww</tspan><tspan class="cls-26" x="79884.49" y="1306.93">w.</tspan><tspan class="cls-39" x="81020.42" y="1306.93">v</tspan><tspan class="cls-18" x="81591.11" y="1306.93">obacom.pl</tspan><tspan class="cls-4" x="86877.57" y="1306.93"> </tspan><tspan class="cls-18" x="156009.41" y="1306.93">ww</tspan><tspan class="cls-24" x="157889.2" y="1306.93">w.</tspan><tspan class="cls-39" x="159025.1" y="1306.93">v</tspan><tspan class="cls-18" x="159595.79" y="1306.93">obacom.pl</tspan><tspan class="cls-5" x="164882.25" y="1306.93"> </tspan><tspan x="234014.06" y="1306.93">ww</tspan><tspan class="cls-27" x="235893.85" y="1306.93">w.</tspan><tspan class="cls-39" x="237029.78" y="1306.93">v</tspan><tspan x="237600.47" y="1306.93">obacom.pl</tspan><tspan class="cls-4" x="242886.93" y="1306.93"> </tspan><tspan x="312018.77" y="1306.93">ww</tspan><tspan class="cls-26" x="313898.56" y="1306.93">w.</tspan><tspan class="cls-39" x="315034.48" y="1306.93">v</tspan><tspan x="315605.18" y="1306.93">obacom.pl</tspan><tspan class="cls-4" x="320891.64" y="1306.93"> </tspan><tspan x="390023.48" y="1306.93">ww</tspan><tspan class="cls-26" x="391903.26" y="1306.93">w.</tspan><tspan class="cls-34" x="393039.19" y="1306.93">v</tspan><tspan class="cls-20" x="393609.86" y="1306.93">obacom.pl</tspan><tspan class="cls-4" x="398896.32" y="1306.93"> </tspan><tspan class="cls-20" x="468028.15" y="1306.93">ww</tspan><tspan class="cls-27" x="469907.94" y="1306.93">w.</tspan><tspan class="cls-39" x="471043.87" y="1306.93">v</tspan><tspan x="471614.56" y="1306.93">obacom.pl</tspan><tspan class="cls-5" x="476901.02" y="1306.93"> </tspan><tspan x="546032.83" y="1306.93">ww</tspan><tspan class="cls-26" x="547912.62" y="1306.93">w.</tspan><tspan class="cls-39" x="549048.55" y="1306.93">v</tspan><tspan x="549619.24" y="1306.93">obacom.pl</tspan><tspan class="cls-4" x="554905.7" y="1306.93"> </tspan><tspan x="624037.54" y="1306.93">ww</tspan><tspan class="cls-26" x="625917.33" y="1306.93">w.</tspan><tspan class="cls-34" x="627053.25" y="1306.93">v</tspan><tspan class="cls-20" x="627623.92" y="1306.93">obacom.pl</tspan><tspan class="cls-4" x="632910.38" y="1306.93"> </tspan><tspan class="cls-20" x="702042.22" y="1306.93">ww</tspan><tspan class="cls-27" x="703922.01" y="1306.93">w.</tspan><tspan class="cls-39" x="705057.93" y="1306.93">v</tspan><tspan x="705628.63" y="1306.93">obacom.pl</tspan><tspan class="cls-4" x="710915.09" y="1306.93"> </tspan><tspan x="780046.92" y="1306.93">ww</tspan><tspan class="cls-27" x="781926.71" y="1306.93">w.</tspan><tspan class="cls-39" x="783062.64" y="1306.93">v</tspan><tspan x="783633.33" y="1306.93">obacom.pl</tspan><tspan class="cls-4" x="788919.79" y="1306.93"> </tspan><tspan x="858051.63" y="1306.93">ww</tspan><tspan class="cls-26" x="859931.42" y="1306.93">w.</tspan><tspan class="cls-39" x="861067.35" y="1306.93">v</tspan><tspan x="861638.04" y="1306.93">obacom.pl</tspan></text>
  <rect class="cls-1" width="421.96" height="251.09" rx="5.19" ry="5.19"/>
  <g>
    <path class="cls-8" d="M87.95,149.62c0,.31-.13.58-.38.79-.25.22-.54.32-.87.32-.48,0-.87-.22-1.17-.65l-3.47-5.39c-.4-.62-.82-1.06-1.27-1.31-.45-.25-1.04-.38-1.76-.38h-2.93v6.33c0,.42-.12.74-.35.99-.23.24-.56.36-.97.36s-.72-.12-.96-.36c-.24-.24-.36-.57-.36-.99v-15.77c0-.4.12-.71.35-.95s.56-.35.97-.35h6.46c2.02,0,3.57.45,4.63,1.35,1.06.9,1.59,2.21,1.59,3.94,0,1.43-.41,2.6-1.22,3.49s-1.97,1.46-3.47,1.7c.45.12.86.34,1.22.65.36.31.72.74,1.06,1.3l2.67,4.2c.16.22.23.47.23.73ZM80.92,140.85c1.35,0,2.35-.26,2.99-.79.65-.53.97-1.34.97-2.45s-.32-1.91-.96-2.42c-.64-.51-1.64-.77-3.01-.77h-4.85v6.43h4.85Z"/>
    <path class="cls-8" d="M99.76,138.86c.82.85,1.23,2.13,1.23,3.86v6.72c0,.4-.11.7-.34.92-.22.22-.54.32-.93.32s-.68-.11-.91-.34c-.23-.22-.34-.53-.34-.91v-.96c-.33.73-.82,1.28-1.47,1.67-.65.39-1.4.58-2.27.58s-1.59-.17-2.28-.51-1.23-.81-1.62-1.41c-.39-.61-.58-1.28-.58-2.02,0-.92.24-1.64.71-2.17.47-.53,1.26-.9,2.36-1.13s2.61-.34,4.52-.34h.6v-.75c0-.97-.2-1.67-.6-2.1s-1.04-.65-1.92-.65c-.61,0-1.18.08-1.71.23-.54.16-1.12.38-1.76.67-.47.26-.79.39-.98.39-.26,0-.47-.09-.64-.29-.16-.19-.25-.43-.25-.73,0-.26.07-.49.22-.69.15-.2.38-.39.71-.58.6-.33,1.31-.59,2.13-.79.81-.2,1.6-.3,2.36-.3,1.68,0,2.93.42,3.75,1.27ZM97.54,147.82c.61-.65.91-1.48.91-2.5v-.67h-.47c-1.35,0-2.39.06-3.11.18-.73.12-1.25.32-1.56.61-.31.29-.47.7-.47,1.23,0,.62.22,1.13.67,1.53.45.4,1.01.6,1.69.6.95,0,1.73-.32,2.33-.97Z"/>
    <path class="cls-8" d="M114.42,148.8c.2.18.3.43.3.74s-.1.56-.3.74c-.2.18-.49.27-.87.27h-8.87c-.38,0-.68-.11-.91-.32s-.34-.49-.34-.82.13-.65.39-.96l7.21-8.53h-6.51c-.36,0-.64-.09-.84-.27-.2-.18-.3-.43-.3-.74s.1-.56.3-.74c.2-.18.48-.27.84-.27h8.61c.36,0,.66.11.89.34.23.23.35.49.35.8,0,.33-.13.65-.39.96l-7.21,8.53h6.77c.38,0,.67.09.87.27Z"/>
    <path class="cls-8" d="M127.21,147.65c.16.19.23.43.23.73,0,.5-.31.93-.93,1.27-.61.35-1.27.61-1.98.8-.72.19-1.4.29-2.06.29-2.01,0-3.59-.58-4.74-1.75-1.16-1.17-1.74-2.76-1.74-4.78,0-1.3.25-2.45.76-3.45.51-1,1.23-1.78,2.15-2.33.92-.55,1.97-.83,3.15-.83,1.69,0,3.03.54,4.02,1.63.99,1.09,1.48,2.56,1.48,4.41,0,.69-.31,1.04-.93,1.04h-8.01c.17,2.68,1.46,4.02,3.86,4.02.64,0,1.19-.09,1.66-.26.47-.17.96-.4,1.48-.67.05-.03.19-.11.43-.22.23-.11.43-.17.58-.17.24,0,.44.1.6.29ZM119.69,140.46c-.61.64-.97,1.54-1.09,2.7h6.69c-.05-1.18-.35-2.08-.89-2.71-.54-.63-1.31-.95-2.29-.95s-1.81.32-2.41.96Z"/>
    <path class="cls-8" d="M149.15,142.69v6.74c0,.4-.12.7-.36.92-.24.22-.56.32-.96.32s-.69-.11-.93-.32c-.24-.22-.36-.52-.36-.92v-6.72c0-1.05-.19-1.82-.57-2.29-.38-.48-.98-.71-1.79-.71-.95,0-1.7.32-2.26.97-.55.65-.83,1.53-.83,2.66v6.09c0,.4-.12.7-.36.92-.24.22-.56.32-.96.32s-.69-.11-.93-.32c-.24-.22-.36-.52-.36-.92v-6.72c0-1.05-.19-1.82-.57-2.29-.38-.48-.98-.71-1.79-.71-.95,0-1.71.32-2.27.97-.56.65-.84,1.53-.84,2.66v6.09c0,.4-.12.7-.36.92-.24.22-.55.32-.93.32s-.7-.11-.95-.32c-.25-.22-.38-.52-.38-.92v-10.55c0-.38.13-.68.39-.91.26-.22.57-.34.93-.34s.66.11.9.32c.23.22.35.51.35.9v.96c.38-.73.91-1.28,1.58-1.66.67-.38,1.45-.57,2.33-.57.97,0,1.77.2,2.4.6.63.4,1.1,1.01,1.41,1.84.38-.74.94-1.34,1.69-1.78.74-.44,1.59-.66,2.54-.66,2.83,0,4.25,1.7,4.25,5.11Z"/>
    <path class="cls-8" d="M177.86,137.66c.33,0,.62.11.88.34.26.22.39.5.39.83,0,.17-.03.33-.1.47l-4.3,10.5c-.1.28-.28.49-.52.64-.24.15-.51.22-.8.22-.28,0-.54-.07-.78-.22-.24-.15-.41-.36-.52-.64l-3.37-8.32-3.29,8.32c-.1.28-.27.49-.51.64s-.5.22-.79.22c-.28,0-.54-.07-.79-.22-.25-.15-.44-.36-.56-.64l-4.28-10.5c-.07-.14-.1-.29-.1-.44,0-.35.14-.63.43-.86.29-.22.6-.34.95-.34.52,0,.87.25,1.06.75l3.34,8.84,3.42-8.76c.1-.28.27-.48.49-.62.22-.14.47-.21.73-.21.24,0,.48.07.7.21.22.14.39.35.49.62l3.42,8.71,3.35-8.76c.19-.52.54-.78,1.06-.78Z"/>
    <path class="cls-8" d="M190.6,149.93c-.93-.54-1.64-1.3-2.15-2.28-.51-.99-.76-2.13-.76-3.42s.26-2.47.79-3.47c.53-1,1.27-1.78,2.22-2.33.95-.55,2.04-.83,3.27-.83.66,0,1.32.1,1.98.29.67.19,1.26.45,1.78.78.55.38.83.82.83,1.32,0,.29-.08.54-.23.74-.16.2-.35.3-.6.3-.16,0-.31-.04-.47-.12-.16-.08-.35-.19-.6-.35-.43-.28-.83-.49-1.21-.64-.37-.15-.82-.22-1.34-.22-1.18,0-2.09.4-2.74,1.19s-.97,1.9-.97,3.32.32,2.51.96,3.28c.64.77,1.55,1.15,2.72,1.15.52,0,.98-.08,1.37-.23.4-.16.8-.36,1.22-.62.19-.12.38-.22.57-.31.19-.09.36-.13.52-.13.24,0,.44.1.6.3.16.2.23.45.23.74,0,.24-.06.46-.19.66-.13.2-.35.4-.66.61-.52.35-1.12.61-1.82.8-.69.19-1.39.29-2.1.29-1.23,0-2.3-.27-3.23-.8Z"/>
    <path class="cls-8" d="M210.95,137.84c.2-.12.41-.18.63-.18.33,0,.62.11.87.34.25.22.38.49.38.8,0,.17-.03.34-.1.49l-7.21,15.3c-.1.24-.26.43-.45.56-.2.13-.41.19-.64.19-.31,0-.59-.1-.84-.31-.25-.21-.38-.47-.38-.78,0-.14.04-.31.13-.52l1.79-3.81-5-10.63c-.07-.14-.1-.29-.1-.47,0-.33.14-.61.42-.83.28-.22.59-.34.93-.34.52,0,.89.24,1.11.73l4.02,8.92,3.99-8.89c.1-.26.25-.45.45-.57Z"/>
    <path class="cls-8" d="M219.96,135.08c-.41.48-.62,1.17-.62,2.09v.73h2.57c.36,0,.64.09.84.27.2.18.3.43.3.74s-.1.56-.3.74c-.2.18-.48.27-.84.27h-2.57v9.49c0,.42-.13.73-.38.95-.25.22-.57.32-.95.32s-.69-.11-.93-.32c-.24-.22-.36-.53-.36-.95v-9.49h-1.56c-.36,0-.64-.09-.84-.27-.2-.18-.3-.43-.3-.74s.1-.56.3-.74c.2-.18.48-.27.84-.27h1.56v-.34c0-1.59.41-2.84,1.22-3.75.81-.91,1.96-1.41,3.45-1.52l.67-.05c.55-.03.95.03,1.21.18.25.16.38.41.38.75,0,.61-.36.95-1.09,1.04l-.67.05c-.86.07-1.5.34-1.92.82Z"/>
    <path class="cls-8" d="M232.85,138.7c0,.38-.1.67-.29.86-.19.19-.52.3-.98.34l-.78.08c-1.09.1-1.9.48-2.42,1.14-.53.66-.79,1.45-.79,2.39v5.94c0,.41-.12.73-.36.93-.24.21-.55.31-.93.31s-.7-.1-.95-.31c-.25-.21-.38-.52-.38-.93v-10.55c0-.4.13-.7.38-.92.25-.22.57-.32.95-.32.35,0,.64.11.87.32.23.22.35.51.35.9v1.24c.35-.76.85-1.34,1.5-1.74.66-.4,1.4-.63,2.23-.7l.36-.03c.83-.05,1.25.3,1.25,1.06Z"/>
    <path class="cls-8" d="M236.59,149.93c-.94-.54-1.67-1.3-2.18-2.29-.51-.99-.76-2.15-.76-3.46s.25-2.49.76-3.49c.51-.99,1.24-1.76,2.18-2.29.94-.54,2.04-.8,3.28-.8s2.34.27,3.28.8c.94.54,1.67,1.3,2.18,2.29.51.99.77,2.16.77,3.49s-.26,2.47-.77,3.46c-.51.99-1.24,1.76-2.18,2.29-.94.54-2.04.8-3.28.8s-2.34-.27-3.28-.8ZM242.53,147.52c.61-.76.92-1.88.92-3.34s-.31-2.56-.93-3.33c-.62-.77-1.5-1.15-2.64-1.15s-2.02.39-2.65,1.15c-.62.77-.93,1.88-.93,3.33s.31,2.58.92,3.34c.61.76,1.5,1.14,2.66,1.14s2.04-.38,2.66-1.14Z"/>
    <path class="cls-8" d="M266.86,137.66c.33,0,.62.11.88.34.26.22.39.5.39.83,0,.17-.03.33-.1.47l-4.3,10.5c-.1.28-.28.49-.52.64-.24.15-.51.22-.8.22-.28,0-.54-.07-.78-.22-.24-.15-.41-.36-.52-.64l-3.37-8.32-3.29,8.32c-.1.28-.27.49-.51.64s-.5.22-.79.22c-.28,0-.54-.07-.79-.22-.25-.15-.44-.36-.56-.64l-4.28-10.5c-.07-.14-.1-.29-.1-.44,0-.35.14-.63.43-.86.29-.22.6-.34.95-.34.52,0,.87.25,1.06.75l3.34,8.84,3.42-8.76c.1-.28.27-.48.49-.62.22-.14.47-.21.73-.21.24,0,.48.07.7.21.22.14.39.35.49.62l3.42,8.71,3.35-8.76c.19-.52.54-.78,1.06-.78Z"/>
    <path class="cls-8" d="M280.65,147.65c.16.19.23.43.23.73,0,.5-.31.93-.93,1.27-.61.35-1.27.61-1.98.8-.72.19-1.4.29-2.06.29-2.01,0-3.59-.58-4.74-1.75-1.16-1.17-1.74-2.76-1.74-4.78,0-1.3.25-2.45.76-3.45.51-1,1.23-1.78,2.15-2.33.92-.55,1.97-.83,3.15-.83,1.69,0,3.03.54,4.02,1.63.99,1.09,1.48,2.56,1.48,4.41,0,.69-.31,1.04-.93,1.04h-8.01c.17,2.68,1.46,4.02,3.86,4.02.64,0,1.19-.09,1.66-.26.47-.17.96-.4,1.48-.67.05-.03.19-.11.43-.22.23-.11.43-.17.58-.17.24,0,.44.1.6.29ZM273.13,140.46c-.61.64-.97,1.54-1.09,2.7h6.69c-.05-1.18-.35-2.08-.89-2.71-.54-.63-1.31-.95-2.29-.95s-1.81.32-2.41.96Z"/>
    <path class="cls-8" d="M280.31,155.06c-.28-.17-.41-.44-.41-.8,0-.28.09-.5.26-.66.17-.16.45-.26.83-.3l.73-.05c.67-.03,1.18-.24,1.52-.62.34-.38.51-.98.51-1.81v-11.9c0-.41.13-.73.38-.95.25-.22.57-.32.95-.32s.69.11.93.32c.24.22.36.53.36.95v11.75c0,1.45-.34,2.55-1.01,3.29-.67.74-1.72,1.17-3.14,1.27l-.7.05c-.52.03-.92-.03-1.19-.21ZM283.86,134.68c-.29-.28-.44-.64-.44-1.09s.15-.81.44-1.08c.29-.27.69-.4,1.19-.4s.88.13,1.18.4c.3.27.45.63.45,1.08s-.15.81-.44,1.09c-.29.28-.69.42-1.19.42s-.9-.14-1.19-.42Z"/>
  </g>
  <g>
    <path class="cls-8" d="M80.23,176.34c.16.16.25.39.25.69,0,.35-.13.61-.4.79-.27.18-.66.26-1.18.22l-.7-.05c-1.4-.1-2.45-.53-3.14-1.28-.69-.75-1.04-1.86-1.04-3.33v-6.09h-1.56c-.76,0-1.14-.34-1.14-1.01,0-.31.1-.56.3-.74.2-.18.48-.27.84-.27h1.56v-2.67c0-.4.12-.71.35-.93.23-.22.55-.34.95-.34s.72.11.96.34c.24.23.36.54.36.93v2.67h2.57c.36,0,.64.09.84.27.2.18.3.43.3.74,0,.33-.1.58-.3.75-.2.17-.48.26-.84.26h-2.57v6.28c0,.81.17,1.41.51,1.79.34.38.85.6,1.54.65l.73.05c.38.03.65.13.82.3Z"/>
    <path class="cls-8" d="M90.37,166.06c0,.38-.1.67-.29.86-.19.19-.52.3-.98.34l-.78.08c-1.09.1-1.9.48-2.42,1.14-.53.66-.79,1.45-.79,2.39v5.94c0,.41-.12.73-.36.93-.24.21-.55.31-.93.31s-.7-.1-.95-.31c-.25-.21-.38-.52-.38-.93v-10.55c0-.4.13-.7.38-.92.25-.22.57-.32.95-.32.35,0,.64.11.87.32.23.22.35.51.35.9v1.24c.35-.76.85-1.34,1.5-1.74.66-.4,1.4-.63,2.23-.7l.36-.03c.83-.05,1.25.3,1.25,1.06Z"/>
    <path class="cls-8" d="M101.29,166.22c.82.85,1.23,2.13,1.23,3.86v6.72c0,.4-.11.7-.34.92-.22.22-.54.32-.93.32s-.68-.11-.91-.34c-.23-.22-.34-.53-.34-.91v-.96c-.33.73-.82,1.28-1.47,1.67-.65.39-1.4.58-2.27.58s-1.59-.17-2.28-.51c-.69-.34-1.23-.81-1.62-1.41-.39-.61-.58-1.28-.58-2.02,0-.92.24-1.64.71-2.17.47-.53,1.26-.9,2.36-1.13,1.1-.22,2.61-.34,4.52-.34h.6v-.75c0-.97-.2-1.67-.6-2.1-.4-.43-1.04-.65-1.92-.65-.61,0-1.18.08-1.71.23-.54.16-1.12.38-1.76.67-.47.26-.79.39-.98.39-.26,0-.47-.09-.64-.29-.16-.19-.25-.43-.25-.73,0-.26.07-.49.22-.69.15-.2.38-.39.71-.58.6-.33,1.31-.59,2.13-.79.81-.2,1.6-.3,2.36-.3,1.68,0,2.93.42,3.75,1.27ZM99.07,175.18c.61-.65.91-1.48.91-2.5v-.67h-.47c-1.35,0-2.39.06-3.11.18-.73.12-1.25.32-1.56.61-.31.29-.47.7-.47,1.23,0,.62.22,1.13.67,1.53.45.4,1.01.6,1.69.6.95,0,1.73-.32,2.33-.97Z"/>
    <path class="cls-8" d="M117.3,170.05v6.74c0,.4-.12.7-.35.92-.23.22-.56.32-.97.32s-.71-.11-.95-.34c-.23-.22-.35-.53-.35-.91v-6.61c0-1.07-.21-1.86-.64-2.36-.42-.5-1.08-.75-1.98-.75-1.05,0-1.9.33-2.54.99-.64.66-.96,1.54-.96,2.64v6.09c0,.38-.12.68-.35.91-.23.22-.55.34-.95.34s-.72-.11-.96-.34c-.24-.22-.36-.53-.36-.91v-10.55c0-.36.13-.66.38-.89.25-.23.57-.35.95-.35s.68.11.91.34c.22.22.34.52.34.88v1.06c.41-.76.99-1.34,1.74-1.74.74-.4,1.58-.6,2.51-.6,3.02,0,4.54,1.7,4.54,5.11Z"/>
    <path class="cls-8" d="M120.77,177c-.31-.19-.53-.39-.66-.6s-.19-.44-.19-.7c0-.28.08-.51.23-.7.16-.19.35-.29.6-.29.22,0,.58.14,1.06.41.52.28,1.02.5,1.52.67.49.17,1.11.26,1.85.26.83,0,1.48-.15,1.94-.44.47-.29.7-.71.7-1.24,0-.35-.09-.62-.27-.83-.18-.21-.5-.39-.95-.56-.45-.16-1.11-.34-2-.53-1.52-.33-2.61-.77-3.28-1.34-.67-.56-1-1.33-1-2.29,0-.74.22-1.41.65-2.01.43-.6,1.03-1.06,1.79-1.39.76-.33,1.62-.49,2.59-.49.69,0,1.37.09,2.02.27.66.18,1.24.45,1.74.79.57.38.86.82.86,1.32,0,.28-.08.51-.25.7-.16.19-.36.29-.58.29-.16,0-.31-.03-.47-.1-.16-.07-.36-.18-.62-.34-.47-.28-.9-.49-1.31-.65-.41-.16-.91-.23-1.52-.23-.73,0-1.31.16-1.75.47s-.66.74-.66,1.27c0,.48.2.86.61,1.13.41.27,1.17.52,2.29.77,1.16.24,2.07.52,2.72.83.66.31,1.13.7,1.41,1.15.29.46.43,1.04.43,1.75,0,1.12-.47,2.03-1.41,2.71-.94.68-2.2,1.02-3.77,1.02-1.76,0-3.21-.36-4.33-1.09Z"/>
    <path class="cls-8" d="M137.6,162.44c-.41.48-.62,1.17-.62,2.09v.73h2.57c.36,0,.64.09.84.27.2.18.3.43.3.74s-.1.56-.3.74c-.2.18-.48.27-.84.27h-2.57v9.49c0,.42-.13.73-.38.95-.25.22-.57.32-.95.32s-.69-.11-.93-.32c-.24-.22-.36-.53-.36-.95v-9.49h-1.56c-.36,0-.64-.09-.84-.27-.2-.18-.3-.43-.3-.74s.1-.56.3-.74c.2-.18.48-.27.84-.27h1.56v-.34c0-1.59.41-2.84,1.22-3.75.81-.91,1.96-1.41,3.45-1.52l.67-.05c.55-.03.95.03,1.21.18.25.16.38.41.38.75,0,.61-.36.95-1.09,1.04l-.67.05c-.86.07-1.5.34-1.92.82Z"/>
    <path class="cls-8" d="M144.52,177.29c-.94-.54-1.67-1.3-2.18-2.29-.51-.99-.76-2.15-.76-3.46s.25-2.49.76-3.49c.51-.99,1.24-1.76,2.18-2.29.94-.54,2.04-.8,3.28-.8s2.34.27,3.28.8c.94.54,1.67,1.3,2.18,2.29.51.99.77,2.16.77,3.49s-.26,2.47-.77,3.46c-.51.99-1.24,1.76-2.18,2.29-.94.54-2.04.8-3.28.8s-2.34-.27-3.28-.8ZM150.45,174.88c.61-.76.92-1.88.92-3.34s-.31-2.56-.93-3.33c-.62-.77-1.5-1.15-2.64-1.15s-2.02.39-2.65,1.15c-.62.77-.93,1.88-.93,3.33s.31,2.58.92,3.34c.61.76,1.5,1.14,2.66,1.14s2.04-.38,2.66-1.14Z"/>
    <path class="cls-8" d="M164.69,166.06c0,.38-.1.67-.29.86-.19.19-.52.3-.98.34l-.78.08c-1.09.1-1.9.48-2.42,1.14-.53.66-.79,1.45-.79,2.39v5.94c0,.41-.12.73-.36.93-.24.21-.55.31-.93.31s-.7-.1-.95-.31c-.25-.21-.38-.52-.38-.93v-10.55c0-.4.13-.7.38-.92.25-.22.57-.32.95-.32.35,0,.64.11.87.32.23.22.35.51.35.9v1.24c.35-.76.85-1.34,1.5-1.74.66-.4,1.4-.63,2.23-.7l.36-.03c.83-.05,1.25.3,1.25,1.06Z"/>
    <path class="cls-8" d="M185.31,170.05v6.74c0,.4-.12.7-.36.92-.24.22-.56.32-.96.32s-.69-.11-.93-.32c-.24-.22-.36-.52-.36-.92v-6.72c0-1.05-.19-1.82-.57-2.29s-.98-.71-1.79-.71c-.95,0-1.7.32-2.26.97-.55.65-.83,1.53-.83,2.66v6.09c0,.4-.12.7-.36.92-.24.22-.56.32-.96.32s-.69-.11-.93-.32c-.24-.22-.36-.52-.36-.92v-6.72c0-1.05-.19-1.82-.57-2.29-.38-.48-.98-.71-1.79-.71-.95,0-1.71.32-2.27.97-.56.65-.84,1.53-.84,2.66v6.09c0,.4-.12.7-.36.92-.24.22-.55.32-.93.32s-.7-.11-.95-.32c-.25-.22-.38-.52-.38-.92v-10.55c0-.38.13-.68.39-.91.26-.22.57-.34.93-.34s.66.11.9.32c.23.22.35.51.35.9v.96c.38-.73.91-1.28,1.58-1.66s1.45-.57,2.33-.57c.97,0,1.77.2,2.4.6.63.4,1.1,1.01,1.41,1.84.38-.74.94-1.34,1.69-1.78.74-.44,1.59-.66,2.54-.66,2.83,0,4.25,1.7,4.25,5.11Z"/>
    <path class="cls-8" d="M197.67,166.22c.82.85,1.23,2.13,1.23,3.86v6.72c0,.4-.11.7-.34.92-.22.22-.54.32-.93.32s-.68-.11-.91-.34c-.23-.22-.34-.53-.34-.91v-.96c-.33.73-.82,1.28-1.47,1.67-.65.39-1.4.58-2.27.58s-1.59-.17-2.28-.51c-.69-.34-1.23-.81-1.62-1.41-.39-.61-.58-1.28-.58-2.02,0-.92.24-1.64.71-2.17.47-.53,1.26-.9,2.36-1.13,1.1-.22,2.61-.34,4.52-.34h.6v-.75c0-.97-.2-1.67-.6-2.1-.4-.43-1.04-.65-1.92-.65-.61,0-1.18.08-1.71.23-.54.16-1.12.38-1.76.67-.47.26-.79.39-.98.39-.26,0-.47-.09-.64-.29-.16-.19-.25-.43-.25-.73,0-.26.07-.49.22-.69.15-.2.38-.39.71-.58.6-.33,1.31-.59,2.13-.79.81-.2,1.6-.3,2.36-.3,1.68,0,2.93.42,3.75,1.27ZM195.46,175.18c.61-.65.91-1.48.91-2.5v-.67h-.47c-1.35,0-2.39.06-3.11.18-.73.12-1.25.32-1.56.61-.31.29-.47.7-.47,1.23,0,.62.22,1.13.67,1.53.45.4,1.01.6,1.69.6.95,0,1.73-.32,2.33-.97Z"/>
    <path class="cls-8" d="M204.54,177.29c-.93-.54-1.64-1.3-2.15-2.28-.51-.99-.76-2.13-.76-3.42s.26-2.47.79-3.47c.53-1,1.27-1.78,2.22-2.33.95-.55,2.04-.83,3.27-.83.66,0,1.32.1,1.98.29.67.19,1.26.45,1.78.78.55.38.83.82.83,1.32,0,.29-.08.54-.23.74-.16.2-.35.3-.6.3-.16,0-.31-.04-.47-.12-.16-.08-.35-.19-.6-.35-.43-.28-.83-.49-1.21-.64-.37-.15-.82-.22-1.34-.22-1.18,0-2.09.4-2.74,1.19-.65.79-.97,1.9-.97,3.32s.32,2.51.96,3.28c.64.77,1.55,1.15,2.72,1.15.52,0,.98-.08,1.37-.23.4-.16.8-.36,1.22-.62.19-.12.38-.22.57-.31.19-.09.36-.13.52-.13.24,0,.44.1.6.3.16.2.23.45.23.74,0,.24-.06.46-.19.66-.13.2-.35.4-.66.61-.52.35-1.12.61-1.82.8-.69.19-1.39.29-2.1.29-1.23,0-2.3-.27-3.23-.8Z"/>
    <path class="cls-8" d="M211.48,182.42c-.28-.17-.41-.44-.41-.8,0-.28.09-.5.26-.66.17-.16.45-.26.83-.3l.73-.05c.67-.03,1.18-.24,1.52-.62.34-.38.51-.98.51-1.81v-11.9c0-.41.13-.73.38-.95.25-.22.57-.32.95-.32s.69.11.93.32c.24.22.36.53.36.95v11.75c0,1.45-.34,2.55-1.01,3.29-.67.74-1.72,1.17-3.14,1.27l-.7.05c-.52.03-.92-.03-1.19-.21ZM215.04,162.04c-.29-.28-.44-.64-.44-1.09s.15-.81.44-1.08c.29-.27.69-.4,1.19-.4s.88.13,1.18.4c.3.27.45.63.45,1.08s-.15.81-.44,1.09c-.29.28-.69.42-1.19.42s-.9-.14-1.19-.42Z"/>
    <path class="cls-8" d="M221.15,162.04c-.29-.28-.44-.64-.44-1.09s.15-.81.44-1.08c.29-.27.69-.4,1.19-.4s.88.13,1.18.4c.3.27.45.63.45,1.08s-.15.81-.44,1.09c-.29.28-.69.42-1.19.42s-.9-.14-1.19-.42ZM221.4,177.73c-.25-.21-.38-.52-.38-.93v-10.53c0-.41.13-.73.38-.95.25-.22.57-.32.95-.32s.69.11.93.32c.24.22.36.53.36.95v10.53c0,.41-.12.73-.36.93-.24.21-.55.31-.93.31s-.7-.1-.95-.31Z"/>
  </g>
  <path class="cls-8" d="M122.35,81.56c-10.17,0-18.45,8.28-18.45,18.45s8.28,18.45,18.45,18.45,18.45-8.28,18.45-18.45-8.28-18.45-18.45-18.45ZM122.35,109.45c-5.21,0-9.44-4.24-9.44-9.44s4.24-9.44,9.44-9.44,9.44,4.24,9.44,9.44-4.24,9.44-9.44,9.44Z"/>
  <path class="cls-8" d="M282.91,81.56c-10.17,0-18.45,8.28-18.45,18.45s8.28,18.45,18.45,18.45,18.45-8.28,18.45-18.45-8.28-18.45-18.45-18.45ZM282.91,109.45c-5.21,0-9.44-4.24-9.44-9.44s4.24-9.44,9.44-9.44,9.44,4.24,9.44,9.44-4.24,9.44-9.44,9.44Z"/>
  <path class="cls-8" d="M205.24,81.56c-10.17,0-18.45,8.28-18.45,18.45s8.28,18.45,18.45,18.45c3.59,0,6.94-1.03,9.77-2.81.67,1.65,2.28,2.81,4.17,2.81,2.49,0,4.5-2.02,4.5-4.5v-13.95c0-10.17-8.28-18.45-18.45-18.45ZM205.24,109.45c-5.21,0-9.44-4.24-9.44-9.44s4.24-9.44,9.44-9.44,9.44,4.24,9.44,9.44-4.24,9.44-9.44,9.44Z"/>
  <path class="cls-8" d="M163.8,81.56c-3.45,0-6.68.95-9.44,2.61v-7.31c0-2.49-2.02-4.5-4.5-4.5s-4.5,2.02-4.5,4.5v23.15c0,10.17,8.28,18.45,18.45,18.45s18.45-8.28,18.45-18.45-8.28-18.45-18.45-18.45ZM163.8,109.45c-5.21,0-9.44-4.24-9.44-9.44s4.24-9.44,9.44-9.44,9.44,4.24,9.44,9.44-4.24,9.44-9.44,9.44Z"/>
  <path class="cls-8" d="M102.04,72.61c-2.34-.85-4.92.35-5.77,2.69l-8.83,24.26-5.51-15.14c-.85-2.34-3.44-3.54-5.77-2.69-2.34.85-3.54,3.44-2.69,5.77l9.73,27.95h0s.01.04.01.04c.04.12.09.24.15.35,0,.02.02.04.03.06.05.1.1.2.16.3.02.03.04.06.06.09.05.09.11.17.17.25.02.03.04.06.07.09.06.08.13.17.2.24.02.02.04.05.06.07.09.1.18.19.28.28.02.02.04.04.07.06.08.07.15.13.23.2.04.03.08.06.12.09.07.05.14.1.21.14.04.03.09.06.13.08.11.07.22.13.33.18.02,0,.04.02.06.03.11.05.22.1.33.14.02,0,.03.01.05.02.03,0,.05.02.08.03.07.03.15.05.22.07.05.01.1.03.14.04.07.02.15.03.22.05.05,0,.1.02.14.03.08.01.16.02.24.03.04,0,.08.01.13.01.12,0,.24.01.35.02,0,0,0,0,0,0h.01c.12,0,.24,0,.35-.02.04,0,.08-.01.13-.01.08,0,.16-.02.24-.03.05,0,.1-.02.15-.03.07-.01.15-.03.22-.05.05-.01.1-.03.15-.04.07-.02.15-.04.22-.07.03,0,.06-.02.08-.03.02,0,.03-.01.05-.02.11-.04.22-.09.33-.14.02-.01.05-.02.07-.03.11-.05.22-.11.32-.18.05-.03.09-.06.14-.09.07-.04.14-.09.2-.14.04-.03.09-.06.13-.1.08-.06.15-.12.22-.19.02-.02.05-.04.08-.07.1-.09.19-.18.27-.28.02-.03.04-.05.07-.08.07-.08.13-.16.19-.24.02-.03.05-.06.07-.1.06-.08.11-.16.16-.25.02-.03.04-.06.06-.1.05-.1.11-.19.15-.29.01-.02.02-.04.03-.07.05-.11.1-.23.15-.35v-.04s.01,0,.01,0l13.05-37.08c.85-2.34-.35-4.92-2.69-5.77Z"/>
  <path class="cls-8" d="M253.36,106.68c-1.78,1.78-4.15,2.77-6.68,2.77-5.21,0-9.44-4.24-9.44-9.44s4.24-9.44,9.44-9.44c2.52,0,4.89.98,6.68,2.76,1.76,1.76,4.61,1.76,6.37,0,1.76-1.76,1.76-4.61,0-6.37-3.48-3.48-8.12-5.4-13.04-5.4-10.17,0-18.45,8.28-18.45,18.45s8.28,18.45,18.45,18.45c4.93,0,9.56-1.92,13.05-5.4,1.76-1.76,1.76-4.61,0-6.37-1.76-1.76-4.61-1.76-6.37,0Z"/>
  <path class="cls-8" d="M336.02,81.88c-3.21,0-6.15,1.17-8.42,3.1-2.3-2.05-5.33-3.29-8.65-3.29-7.19,0-13.04,5.85-13.04,13.04v19.03c0,2.49,2.02,4.5,4.5,4.5s4.5-2.02,4.5-4.5v-19.03c0-2.22,1.81-4.03,4.03-4.03s4.03,1.81,4.03,4.03v19.23c0,2.49,2.02,4.5,4.5,4.5s4.5-2.02,4.5-4.5v-19.03c0-2.22,1.81-4.03,4.03-4.03s4.03,1.81,4.03,4.03v19.03c0,2.49,2.02,4.5,4.5,4.5s4.5-2.02,4.5-4.5v-19.03c0-7.19-5.85-13.04-13.04-13.04Z"/>
  <path class="cls-19" d="M77.28,72.31c0-2.51-2.04-4.55-4.55-4.55s-4.55,2.04-4.55,4.55,2.04,4.55,4.55,4.55,4.55-2.04,4.55-4.55Z"/>
</svg>