<?xml version="1.0" encoding="UTF-8" standalone="no"?>
<svg
   version="1.0"
   x="0"
   y="0"
   width="324"
   height="100"
   viewBox="78.842457 95.612683 24.612537 7.5964616"
   preserveAspectRatio="xMidYMid"
   color-interpolation-filters="sRGB"
   id="svg248"
   xml:space="preserve"
   xmlns="http://www.w3.org/2000/svg"
   xmlns:svg="http://www.w3.org/2000/svg"><defs
     id="defs252"><clipPath
       clipPathUnits="userSpaceOnUse"
       id="clipPath593"><path
         d="m 569.152,705.176 h 423.531 v 389.645 H 569.152 Z"
         id="path591" /></clipPath></defs><g
     id="g587"
     transform="matrix(0.01949582,0,0,0.01949585,67.746372,81.864677)"><g
       id="g589"
       clip-path="url(#clipPath593)"><path
         d="M 984.211,705.176 H 577.625 c -4.676,0 -8.473,3.797 -8.473,8.472 v 372.704 c 0,4.683 3.797,8.472 8.473,8.472 h 406.586 c 4.684,0 8.469,-3.789 8.469,-8.472 V 713.648 c 0,-4.675 -3.785,-8.472 -8.469,-8.472 z m -214.246,200.812 -84.707,84.707 c -1.653,1.653 -3.82,2.481 -5.988,2.481 -2.168,0 -4.336,-0.828 -5.989,-2.481 -3.312,-3.312 -3.312,-8.668 0,-11.976 L 752,900 673.281,821.281 c -3.312,-3.308 -3.312,-8.664 0,-11.976 3.313,-3.313 8.664,-3.313 11.977,0 l 84.707,84.707 c 3.312,3.312 3.312,8.664 0,11.976 z m 112.597,87.188 h -84.703 c -4.687,0 -8.472,-3.785 -8.472,-8.469 0,-4.687 3.785,-8.473 8.472,-8.473 h 84.703 c 4.684,0 8.473,3.786 8.473,8.473 0,4.684 -3.789,8.469 -8.473,8.469 z"
         style="fill:#b22166;fill-opacity:1;fill-rule:nonzero;stroke:none"
         id="path595" /></g></g><g
     id="g597"
     transform="matrix(0.01949582,0,0,0.01949585,67.746372,81.864677)"><path
       d="m 1089.457,786.086 c -3.387,2.918 -5.645,6.164 -6.777,9.742 -1.176,3.531 -1.762,7.293 -1.762,11.293 0,4 1.738,7.695 5.223,11.082 3.433,3.344 8,6.168 13.695,8.473 5.691,2.304 12.164,4.351 19.41,6.14 7.293,1.789 14.707,3.602 22.234,5.434 7.579,1.883 14.989,4.027 22.235,6.426 7.297,2.398 13.789,5.457 19.484,9.176 12.567,8 18.848,18.918 18.848,32.753 0,16.516 -6.164,29.106 -18.496,37.766 -12.328,8.703 -29.41,13.059 -51.246,13.059 -24.66,0 -43.457,-5.153 -56.399,-15.461 -11.531,-9.223 -18.094,-22.352 -19.695,-39.387 h 20.754 c 0.703,12.094 6.562,21.34 17.574,27.742 9.555,5.457 22.238,8.188 38.047,8.188 32.988,0 49.484,-10.379 49.484,-31.129 0,-7.106 -2.965,-12.684 -8.894,-16.731 -5.93,-4.093 -13.387,-7.484 -22.375,-10.164 -8.942,-2.636 -18.613,-5.105 -29.012,-7.414 -10.355,-2.304 -20.023,-5.293 -29.012,-8.965 -8.941,-3.621 -16.402,-8.398 -22.379,-14.328 -5.929,-5.976 -8.894,-14.023 -8.894,-24.14 0,-14.352 5.508,-26.047 16.519,-35.082 11.012,-9.082 27.598,-13.625 49.766,-13.625 22.352,0 39.668,5.152 51.949,15.461 11.157,9.035 17.086,20.656 17.789,34.871 h -20.468 c -1.789,-14.543 -11.2,-24.215 -28.235,-29.016 -6.023,-1.785 -13.531,-2.68 -22.519,-2.68 -8.942,0 -16.469,1.035 -22.59,3.106 -6.117,2.023 -10.867,4.492 -14.258,7.41 z m 221.789,-29.152 c 26.258,0 47.813,8.8 64.66,26.402 16.516,17.035 24.774,38.328 24.774,63.879 0,25.555 -8.258,46.847 -24.774,63.883 -16.847,17.554 -38.402,26.332 -64.66,26.332 -26.305,0 -47.883,-8.778 -64.73,-26.332 -16.516,-17.036 -24.778,-38.328 -24.778,-63.883 0,-25.551 8.262,-46.844 24.778,-63.879 16.847,-17.602 38.425,-26.402 64.73,-26.402 z m 0,161.082 c 20.942,0 37.883,-6.848 50.824,-20.539 12.422,-13.129 18.633,-29.883 18.633,-50.262 0,-20.422 -6.211,-37.199 -18.633,-50.328 -12.941,-13.649 -29.882,-20.469 -50.824,-20.469 -20.988,0 -37.953,6.82 -50.894,20.469 -12.422,13.129 -18.637,29.906 -18.637,50.328 0,20.379 6.215,37.133 18.637,50.262 12.941,13.691 29.906,20.539 50.894,20.539 z m 225.457,-130.727 -47.644,148.023 h -22.661 l -54.847,-176.261 h 21.035 l 45.25,148.023 47.434,-148.023 h 22.871 l 47.363,148.023 45.246,-148.023 h 21.039 l -54.848,176.261 h -22.589 z m 219.32,-28.238 74.825,176.261 h -22.098 l -21.598,-51.109 h -87.316 l -21.531,51.109 h -22.094 l 74.824,-176.261 z m -48.425,106.801 h 71.859 l -35.93,-85.977 z"
       style="fill:#ffffff;fill-opacity:1;fill-rule:nonzero;stroke:none"
       id="path599" /><path
       d="m 1065.824,958.605 v 84.461 h -9.613 v -84.461 z m 57.391,54.352 v 30.109 h -9.613 v -84.461 h 38.023 c 8.953,0 16.07,2.473 21.348,7.422 5.183,4.899 7.773,11.496 7.773,19.789 0,8.293 -2.613,14.891 -7.844,19.789 -5.23,4.903 -12.324,7.352 -21.277,7.352 z m 27.777,-45.305 h -27.777 v 36.399 h 27.777 c 6.641,0 11.66,-1.625 15.055,-4.875 3.437,-3.254 5.156,-7.707 5.156,-13.36 0,-5.656 -1.719,-10.082 -5.156,-13.289 -3.395,-3.25 -8.414,-4.875 -15.055,-4.875 z m 76.192,-9.047 35.832,84.461 h -10.602 l -10.32,-24.527 h -41.84 l -10.32,24.527 h -10.602 l 35.836,-84.461 z m -23.254,51.172 h 34.492 l -17.246,-41.207 z m 79.371,0.918 v 32.371 h -9.543 v -84.461 h 40.43 c 8.574,0 15.457,2.379 20.636,7.137 5.184,4.664 7.778,11.098 7.778,19.297 0,10.555 -4.36,17.738 -13.079,21.555 -2.496,1.086 -4.921,1.886 -7.277,2.406 l 22.192,34.066 h -11.379 l -20.426,-32.371 z m 0,-43.043 v 33.926 h 29.191 c 9.047,0 15.266,-2.805 18.66,-8.41 1.27,-2.121 1.907,-4.832 1.907,-8.129 0,-5.371 -1.836,-9.613 -5.512,-12.723 -3.629,-3.109 -8.457,-4.664 -14.488,-4.664 z m 134.574,-9.047 v 9.188 h -29.477 v 75.273 h -9.539 v -75.273 h -29.472 v -9.188 z m 75.414,0 h 9.609 v 84.461 h -11.093 L 1439.57,971.75 v 71.316 h -9.539 v -84.461 h 11.094 l 52.164,71.032 z m 92.375,9.188 h -52.586 v 28.344 h 47.004 v 9.328 h -47.004 v 28.414 h 52.586 v 9.187 h -62.125 v -84.461 h 62.125 z m 25.02,42.902 v 32.371 h -9.614 v -84.461 h 40.5 c 8.578,0 15.457,2.379 20.641,7.137 5.18,4.664 7.773,11.098 7.773,19.297 0,10.555 -4.382,17.738 -13.148,21.555 -2.449,1.086 -4.875,1.886 -7.277,2.406 l 22.191,34.066 h -11.309 l -20.425,-32.371 z m 0,-43.043 v 33.926 h 29.191 c 9,0 15.219,-2.805 18.66,-8.41 1.27,-2.121 1.906,-4.832 1.906,-8.129 0,-5.371 -1.836,-9.613 -5.511,-12.723 -3.676,-3.109 -8.528,-4.664 -14.559,-4.664 z m 135.984,0.141 -55.129,66.367 h 55.129 v 8.906 h -66.859 v -9.046 l 55.129,-66.508 h -54.352 v -8.907 h 66.082 z m 48.84,41.844 v 33.429 h -9.539 v -33.429 l -35.481,-51.032 h 11.59 l 28.625,41.063 28.555,-41.063 h 11.59 z"
       style="fill:#ffffff;fill-opacity:1;fill-rule:nonzero;stroke:none"
       id="path601" /></g></svg>
