<svg xmlns="http://www.w3.org/2000/svg" xmlns:xlink="http://www.w3.org/1999/xlink" width="500" zoomAndPan="magnify" viewBox="0 0 375 74.999997" height="100" preserveAspectRatio="xMidYMid meet" version="1.0"><defs><g/><clipPath id="d09cd01c45"><path d="M 18 18.050781 L 38 18.050781 L 38 38 L 18 38 Z M 18 18.050781 " clip-rule="nonzero"/></clipPath><clipPath id="729b0d437c"><path d="M 33.070312 37.730469 C 32.472656 37.75 31.894531 37.652344 31.339844 37.433594 C 30.785156 37.214844 30.292969 36.894531 29.871094 36.472656 C 26.425781 33.046875 22.960938 29.648438 19.570312 26.195312 C 17.746094 24.328125 17.90625 21.46875 19.792969 19.527344 C 20.007812 19.3125 20.238281 19.117188 20.492188 18.945312 C 20.742188 18.773438 21.007812 18.625 21.285156 18.503906 C 21.566406 18.382812 21.855469 18.289062 22.152344 18.226562 C 22.449219 18.160156 22.75 18.125 23.054688 18.117188 C 23.359375 18.109375 23.664062 18.132812 23.960938 18.183594 C 24.261719 18.234375 24.554688 18.3125 24.839844 18.421875 C 25.125 18.527344 25.398438 18.664062 25.65625 18.824219 C 25.914062 18.984375 26.15625 19.167969 26.378906 19.375 C 29.066406 21.914062 31.648438 24.59375 34.28125 27.207031 C 35.0625 27.988281 35.875 28.742188 36.617188 29.542969 C 36.949219 29.882812 37.226562 30.261719 37.445312 30.683594 C 37.664062 31.101562 37.816406 31.546875 37.898438 32.015625 C 37.984375 32.480469 37.996094 32.953125 37.9375 33.421875 C 37.875 33.894531 37.746094 34.34375 37.550781 34.777344 C 36.765625 36.738281 35.210938 37.71875 33.070312 37.730469 Z M 33.070312 37.730469 " clip-rule="nonzero"/></clipPath><clipPath id="62d5b61b1b"><path d="M 132 28 L 164 28 L 164 60 L 132 60 Z M 132 28 " clip-rule="nonzero"/></clipPath><clipPath id="34bbf56383"><path d="M 147.566406 36.160156 C 145.496094 34.058594 143.578125 32.082031 141.628906 30.132812 C 140.03125 28.535156 138.074219 27.957031 135.953125 28.695312 C 131.949219 30.097656 130.859375 34.730469 133.777344 37.824219 C 135.492188 39.644531 137.289062 41.390625 139.09375 43.128906 C 139.679688 43.699219 139.695312 44.035156 139.09375 44.625 C 137.296875 46.320312 135.566406 48.082031 133.847656 49.851562 C 133.390625 50.292969 133.023438 50.792969 132.742188 51.359375 C 132.460938 51.925781 132.28125 52.523438 132.203125 53.148438 C 132.128906 53.773438 132.15625 54.398438 132.292969 55.015625 C 132.429688 55.628906 132.664062 56.207031 132.996094 56.742188 C 134.925781 59.699219 138.6875 60.285156 141.308594 57.917969 C 143.222656 56.1875 145.003906 54.308594 146.796875 52.457031 C 147.398438 51.832031 147.800781 51.816406 148.414062 52.457031 C 150.117188 54.234375 151.859375 55.988281 153.644531 57.6875 C 155.046875 59.027344 156.746094 59.710938 158.703125 59.214844 C 163.082031 58.101562 164.527344 53.269531 161.445312 49.964844 C 159.789062 48.191406 158.070312 46.464844 156.308594 44.824219 C 155.460938 44.042969 155.652344 43.589844 156.375 42.890625 C 158.242188 41.101562 160.109375 39.3125 161.8125 37.386719 C 163.351562 35.664062 163.554688 33.582031 162.53125 31.515625 C 161.464844 29.371094 159.644531 28.367188 157.222656 28.457031 C 155.355469 28.523438 154.097656 29.605469 152.886719 30.828125 C 151.148438 32.535156 149.4375 34.273438 147.566406 36.160156 Z M 147.566406 36.160156 " clip-rule="nonzero"/></clipPath><clipPath id="f1de150742"><path d="M 143 18.050781 L 152 18.050781 L 152 27 L 143 27 Z M 143 18.050781 " clip-rule="nonzero"/></clipPath><clipPath id="38709cf3bc"><path d="M 151.644531 22.21875 C 151.65625 21.957031 151.640625 21.695312 151.597656 21.433594 C 151.554688 21.175781 151.488281 20.921875 151.394531 20.675781 C 151.300781 20.429688 151.183594 20.195312 151.042969 19.976562 C 150.898438 19.753906 150.738281 19.546875 150.554688 19.355469 C 150.371094 19.167969 150.171875 19 149.957031 18.851562 C 149.738281 18.699219 149.507812 18.574219 149.265625 18.472656 C 149.023438 18.371094 148.773438 18.292969 148.515625 18.242188 C 148.257812 18.1875 148 18.164062 147.734375 18.164062 C 147.46875 18.152344 147.203125 18.167969 146.9375 18.210938 C 146.671875 18.25 146.414062 18.320312 146.164062 18.414062 C 145.914062 18.507812 145.675781 18.628906 145.449219 18.769531 C 145.222656 18.914062 145.015625 19.078125 144.820312 19.265625 C 144.628906 19.449219 144.457031 19.652344 144.304688 19.875 C 144.152344 20.09375 144.027344 20.328125 143.921875 20.574219 C 143.820312 20.820312 143.742188 21.078125 143.6875 21.339844 C 143.636719 21.601562 143.613281 21.867188 143.613281 22.136719 C 143.601562 22.402344 143.617188 22.671875 143.660156 22.9375 C 143.703125 23.203125 143.769531 23.460938 143.867188 23.714844 C 143.960938 23.96875 144.078125 24.207031 144.222656 24.4375 C 144.363281 24.664062 144.527344 24.875 144.710938 25.070312 C 144.898438 25.265625 145.101562 25.441406 145.320312 25.597656 C 145.542969 25.75 145.777344 25.882812 146.023438 25.988281 C 146.269531 26.097656 146.523438 26.179688 146.789062 26.234375 C 147.050781 26.292969 147.316406 26.320312 147.585938 26.324219 C 147.855469 26.328125 148.121094 26.304688 148.386719 26.253906 C 148.652344 26.203125 148.910156 26.125 149.15625 26.023438 C 149.40625 25.921875 149.644531 25.792969 149.867188 25.644531 C 150.089844 25.496094 150.296875 25.324219 150.484375 25.132812 C 150.675781 24.941406 150.84375 24.730469 150.992188 24.507812 C 151.136719 24.28125 151.261719 24.042969 151.363281 23.792969 C 151.460938 23.542969 151.535156 23.285156 151.582031 23.019531 C 151.628906 22.753906 151.652344 22.488281 151.644531 22.21875 Z M 151.644531 22.21875 " clip-rule="nonzero"/></clipPath><clipPath id="c77b60af97"><path d="M 109 28 L 129 28 L 129 49 L 109 49 Z M 109 28 " clip-rule="nonzero"/></clipPath><clipPath id="8f3bb3e94c"><path d="M 128.722656 43.960938 C 128.707031 44.417969 128.628906 44.859375 128.488281 45.292969 C 128.347656 45.726562 128.148438 46.128906 127.894531 46.507812 C 127.640625 46.882812 127.339844 47.21875 126.988281 47.511719 C 126.640625 47.804688 126.257812 48.042969 125.84375 48.226562 C 125.40625 48.433594 124.949219 48.570312 124.46875 48.632812 C 123.988281 48.699219 123.511719 48.6875 123.035156 48.605469 C 122.558594 48.523438 122.109375 48.367188 121.679688 48.144531 C 121.25 47.917969 120.867188 47.636719 120.527344 47.292969 C 117.175781 43.980469 113.84375 40.648438 110.527344 37.300781 C 110.296875 37.074219 110.085938 36.832031 109.902344 36.5625 C 109.71875 36.296875 109.566406 36.015625 109.4375 35.71875 C 109.3125 35.421875 109.214844 35.113281 109.152344 34.796875 C 109.085938 34.480469 109.054688 34.160156 109.054688 33.835938 C 109.054688 33.511719 109.085938 33.191406 109.152344 32.875 C 109.214844 32.558594 109.3125 32.25 109.4375 31.953125 C 109.566406 31.65625 109.71875 31.375 109.902344 31.105469 C 110.085938 30.839844 110.296875 30.597656 110.527344 30.371094 C 112.441406 28.464844 115.472656 28.535156 117.460938 30.527344 C 120.609375 33.675781 123.765625 36.824219 126.921875 39.972656 C 127.492188 40.480469 127.933594 41.082031 128.246094 41.777344 C 128.558594 42.46875 128.71875 43.199219 128.722656 43.960938 Z M 128.722656 43.960938 " clip-rule="nonzero"/></clipPath><clipPath id="1d3141b5d6"><path d="M 89 51 L 99 51 L 99 60 L 89 60 Z M 89 51 " clip-rule="nonzero"/></clipPath><clipPath id="38ecf01560"><path d="M 94.003906 51.78125 C 94.535156 51.800781 95.042969 51.914062 95.53125 52.125 C 96.015625 52.335938 96.445312 52.632812 96.820312 53.007812 C 97.191406 53.386719 97.480469 53.820312 97.6875 54.308594 C 97.894531 54.796875 98.003906 55.308594 98.011719 55.835938 C 98.011719 56.367188 97.910156 56.878906 97.707031 57.371094 C 97.503906 57.859375 97.214844 58.296875 96.84375 58.671875 C 96.472656 59.050781 96.039062 59.34375 95.550781 59.550781 C 95.0625 59.761719 94.554688 59.871094 94.023438 59.878906 C 93.484375 59.882812 92.960938 59.785156 92.460938 59.582031 C 91.960938 59.378906 91.515625 59.089844 91.128906 58.714844 C 90.742188 58.335938 90.4375 57.902344 90.222656 57.40625 C 90.007812 56.910156 89.894531 56.390625 89.882812 55.851562 C 89.902344 55.3125 90.019531 54.796875 90.234375 54.304688 C 90.449219 53.808594 90.75 53.375 91.132812 52.996094 C 91.515625 52.617188 91.957031 52.320312 92.453125 52.113281 C 92.949219 51.902344 93.464844 51.792969 94.003906 51.78125 Z M 94.003906 51.78125 " clip-rule="nonzero"/></clipPath><clipPath id="ad5345ad9b"><path d="M 109 51 L 118 51 L 118 60 L 109 60 Z M 109 51 " clip-rule="nonzero"/></clipPath><clipPath id="57a17f7f1b"><path d="M 117.925781 55.835938 C 117.925781 56.367188 117.824219 56.878906 117.625 57.371094 C 117.421875 57.859375 117.136719 58.296875 116.765625 58.675781 C 116.394531 59.050781 115.964844 59.347656 115.480469 59.558594 C 114.992188 59.765625 114.484375 59.878906 113.953125 59.886719 C 113.683594 59.898438 113.410156 59.886719 113.144531 59.84375 C 112.875 59.800781 112.613281 59.734375 112.359375 59.636719 C 112.101562 59.542969 111.859375 59.425781 111.628906 59.28125 C 111.398438 59.136719 111.183594 58.972656 110.984375 58.785156 C 110.789062 58.597656 110.609375 58.394531 110.453125 58.171875 C 110.296875 57.949219 110.164062 57.714844 110.054688 57.464844 C 109.945312 57.21875 109.863281 56.960938 109.804688 56.695312 C 109.746094 56.429688 109.714844 56.160156 109.710938 55.886719 C 109.707031 55.617188 109.730469 55.347656 109.78125 55.078125 C 109.832031 54.8125 109.910156 54.554688 110.011719 54.300781 C 110.113281 54.050781 110.242188 53.808594 110.390625 53.585938 C 110.542969 53.359375 110.714844 53.148438 110.90625 52.957031 C 111.097656 52.765625 111.308594 52.59375 111.535156 52.445312 C 111.761719 52.292969 112 52.167969 112.253906 52.066406 C 112.503906 51.964844 112.765625 51.890625 113.03125 51.839844 C 113.300781 51.789062 113.570312 51.769531 113.839844 51.773438 C 114.109375 51.769531 114.375 51.792969 114.636719 51.84375 C 114.902344 51.894531 115.15625 51.972656 115.40625 52.070312 C 115.652344 52.171875 115.890625 52.296875 116.113281 52.445312 C 116.335938 52.59375 116.542969 52.761719 116.734375 52.953125 C 116.921875 53.140625 117.09375 53.347656 117.242188 53.570312 C 117.390625 53.792969 117.515625 54.027344 117.617188 54.273438 C 117.71875 54.523438 117.796875 54.777344 117.847656 55.039062 C 117.902344 55.304688 117.925781 55.570312 117.925781 55.835938 Z M 117.925781 55.835938 " clip-rule="nonzero"/></clipPath><clipPath id="56868e64b3"><path d="M 119 18.050781 L 128 18.050781 L 128 27 L 119 27 Z M 119 18.050781 " clip-rule="nonzero"/></clipPath><clipPath id="28208a1413"><path d="M 127.882812 22.296875 C 127.878906 22.566406 127.84375 22.832031 127.785156 23.09375 C 127.726562 23.355469 127.644531 23.605469 127.535156 23.851562 C 127.425781 24.09375 127.292969 24.328125 127.136719 24.542969 C 126.980469 24.761719 126.804688 24.960938 126.609375 25.144531 C 126.410156 25.328125 126.199219 25.488281 125.972656 25.628906 C 125.742188 25.769531 125.503906 25.886719 125.253906 25.980469 C 125 26.070312 124.742188 26.140625 124.476562 26.179688 C 124.214844 26.222656 123.949219 26.234375 123.679688 26.222656 C 123.152344 26.195312 122.644531 26.070312 122.167969 25.84375 C 121.6875 25.621094 121.265625 25.3125 120.90625 24.925781 C 120.546875 24.535156 120.273438 24.09375 120.085938 23.597656 C 119.898438 23.101562 119.8125 22.589844 119.824219 22.058594 C 119.851562 21.53125 119.972656 21.03125 120.195312 20.550781 C 120.417969 20.070312 120.722656 19.652344 121.109375 19.292969 C 121.5 18.933594 121.941406 18.664062 122.433594 18.476562 C 122.929688 18.292969 123.441406 18.207031 123.96875 18.222656 C 124.496094 18.238281 125 18.351562 125.484375 18.566406 C 125.964844 18.78125 126.390625 19.078125 126.753906 19.460938 C 127.121094 19.84375 127.402344 20.277344 127.59375 20.769531 C 127.789062 21.261719 127.882812 21.769531 127.875 22.296875 Z M 127.882812 22.296875 " clip-rule="nonzero"/></clipPath><clipPath id="8972f81c8d"><path d="M 100 41 L 109 41 L 109 50 L 100 50 Z M 100 41 " clip-rule="nonzero"/></clipPath><clipPath id="eac00293d3"><path d="M 104.078125 49.066406 C 103.8125 49.0625 103.554688 49.03125 103.296875 48.972656 C 103.039062 48.917969 102.789062 48.835938 102.546875 48.730469 C 102.308594 48.625 102.078125 48.496094 101.863281 48.34375 C 101.644531 48.195312 101.445312 48.023438 101.265625 47.835938 C 101.082031 47.644531 100.917969 47.4375 100.777344 47.214844 C 100.632812 46.996094 100.515625 46.761719 100.417969 46.515625 C 100.320312 46.269531 100.25 46.019531 100.203125 45.757812 C 100.15625 45.5 100.136719 45.238281 100.140625 44.976562 C 100.144531 44.710938 100.171875 44.453125 100.230469 44.195312 C 100.285156 43.9375 100.363281 43.6875 100.46875 43.445312 C 100.574219 43.203125 100.699219 42.972656 100.851562 42.757812 C 101 42.539062 101.167969 42.339844 101.359375 42.15625 C 101.546875 41.972656 101.75 41.808594 101.972656 41.664062 C 102.195312 41.519531 102.425781 41.398438 102.671875 41.300781 C 102.914062 41.203125 103.167969 41.132812 103.425781 41.082031 C 103.6875 41.035156 103.945312 41.011719 104.210938 41.015625 C 104.472656 41.019531 104.734375 41.046875 104.992188 41.101562 C 105.25 41.15625 105.5 41.234375 105.742188 41.335938 C 105.984375 41.441406 106.214844 41.566406 106.433594 41.714844 C 106.652344 41.863281 106.851562 42.03125 107.035156 42.21875 C 107.222656 42.40625 107.386719 42.609375 107.53125 42.832031 C 107.675781 43.050781 107.796875 43.28125 107.898438 43.527344 C 107.996094 43.769531 108.070312 44.023438 108.121094 44.28125 C 108.171875 44.539062 108.195312 44.800781 108.191406 45.0625 C 108.195312 45.332031 108.167969 45.597656 108.113281 45.859375 C 108.0625 46.121094 107.984375 46.375 107.878906 46.625 C 107.773438 46.871094 107.648438 47.105469 107.496094 47.324219 C 107.347656 47.546875 107.175781 47.75 106.980469 47.9375 C 106.789062 48.125 106.582031 48.289062 106.355469 48.433594 C 106.132812 48.578125 105.894531 48.699219 105.644531 48.796875 C 105.394531 48.894531 105.136719 48.964844 104.875 49.011719 C 104.609375 49.058594 104.34375 49.074219 104.078125 49.066406 Z M 104.078125 49.066406 " clip-rule="nonzero"/></clipPath><clipPath id="d448cad659"><path d="M 90 30 L 97 30 L 97 37 L 90 37 Z M 90 30 " clip-rule="nonzero"/></clipPath><clipPath id="31fe538bfd"><path d="M 90.09375 33.511719 C 90.085938 33.066406 90.164062 32.636719 90.328125 32.21875 C 90.492188 31.804688 90.730469 31.4375 91.042969 31.117188 C 91.351562 30.796875 91.710938 30.550781 92.121094 30.371094 C 92.527344 30.195312 92.957031 30.101562 93.402344 30.09375 C 93.847656 30.085938 94.277344 30.164062 94.691406 30.328125 C 95.109375 30.492188 95.476562 30.730469 95.796875 31.039062 C 96.117188 31.347656 96.367188 31.707031 96.542969 32.117188 C 96.722656 32.527344 96.8125 32.953125 96.820312 33.398438 C 96.832031 33.851562 96.753906 34.292969 96.585938 34.714844 C 96.417969 35.136719 96.175781 35.511719 95.859375 35.835938 C 95.542969 36.164062 95.175781 36.414062 94.757812 36.59375 C 94.339844 36.773438 93.902344 36.863281 93.449219 36.867188 C 93.003906 36.867188 92.574219 36.78125 92.164062 36.613281 C 91.753906 36.441406 91.390625 36.199219 91.074219 35.886719 C 90.757812 35.570312 90.515625 35.207031 90.347656 34.796875 C 90.175781 34.382812 90.09375 33.957031 90.09375 33.511719 Z M 90.09375 33.511719 " clip-rule="nonzero"/></clipPath><clipPath id="ed2eb844a9"><path d="M 79 41 L 87 41 L 87 49 L 79 49 Z M 79 41 " clip-rule="nonzero"/></clipPath><clipPath id="b28785f6e2"><path d="M 83.128906 48.417969 C 82.6875 48.402344 82.265625 48.308594 81.863281 48.125 C 81.460938 47.945312 81.105469 47.699219 80.800781 47.378906 C 80.492188 47.058594 80.257812 46.695312 80.097656 46.285156 C 79.933594 45.875 79.855469 45.449219 79.859375 45.007812 C 79.882812 44.554688 79.992188 44.121094 80.183594 43.710938 C 80.375 43.296875 80.632812 42.9375 80.964844 42.625 C 81.296875 42.3125 81.671875 42.074219 82.09375 41.910156 C 82.515625 41.742188 82.953125 41.660156 83.410156 41.664062 C 83.851562 41.695312 84.273438 41.808594 84.675781 42 C 85.078125 42.195312 85.425781 42.457031 85.726562 42.785156 C 86.027344 43.109375 86.257812 43.484375 86.414062 43.898438 C 86.574219 44.316406 86.648438 44.746094 86.640625 45.191406 C 86.625 45.636719 86.523438 46.066406 86.335938 46.472656 C 86.148438 46.882812 85.890625 47.234375 85.5625 47.539062 C 85.230469 47.84375 84.855469 48.070312 84.433594 48.222656 C 84.011719 48.375 83.578125 48.441406 83.128906 48.417969 Z M 83.128906 48.417969 " clip-rule="nonzero"/></clipPath><clipPath id="da7744b4ec"><path d="M 80 20 L 86 20 L 86 25 L 80 25 Z M 80 20 " clip-rule="nonzero"/></clipPath><clipPath id="466969165d"><path d="M 83.0625 20.003906 C 83.351562 20.007812 83.628906 20.070312 83.890625 20.183594 C 84.15625 20.296875 84.386719 20.460938 84.585938 20.667969 C 84.785156 20.875 84.9375 21.113281 85.042969 21.378906 C 85.148438 21.648438 85.195312 21.925781 85.1875 22.214844 C 85.179688 22.503906 85.117188 22.78125 85 23.046875 C 84.882812 23.308594 84.71875 23.542969 84.507812 23.742188 C 84.300781 23.941406 84.058594 24.09375 83.789062 24.195312 C 83.519531 24.300781 83.238281 24.347656 82.949219 24.339844 C 82.660156 24.332031 82.382812 24.269531 82.117188 24.152344 C 81.851562 24.035156 81.621094 23.871094 81.421875 23.660156 C 81.222656 23.449219 81.070312 23.207031 80.96875 22.9375 C 80.863281 22.667969 80.816406 22.386719 80.824219 22.097656 C 80.832031 21.808594 80.898438 21.535156 81.015625 21.273438 C 81.132812 21.011719 81.296875 20.78125 81.507812 20.582031 C 81.71875 20.386719 81.957031 20.238281 82.226562 20.136719 C 82.496094 20.039062 82.777344 19.992188 83.0625 20.003906 Z M 83.0625 20.003906 " clip-rule="nonzero"/></clipPath><clipPath id="7b04b0aaba"><path d="M 0 42 L 5 42 L 5 48 L 0 48 Z M 0 42 " clip-rule="nonzero"/></clipPath><clipPath id="ecf981d8a1"><path d="M 0.4375 44.914062 C 0.433594 45.203125 0.480469 45.484375 0.578125 45.753906 C 0.679688 46.027344 0.824219 46.269531 1.015625 46.488281 C 1.207031 46.703125 1.433594 46.878906 1.691406 47.007812 C 1.949219 47.140625 2.21875 47.222656 2.507812 47.25 C 2.792969 47.242188 3.070312 47.183594 3.332031 47.074219 C 3.597656 46.964844 3.835938 46.816406 4.046875 46.621094 C 4.257812 46.429688 4.429688 46.207031 4.558594 45.949219 C 4.6875 45.695312 4.773438 45.425781 4.804688 45.144531 C 4.8125 44.855469 4.761719 44.578125 4.660156 44.308594 C 4.558594 44.039062 4.410156 43.800781 4.214844 43.589844 C 4.019531 43.378906 3.792969 43.210938 3.53125 43.085938 C 3.273438 42.964844 3 42.890625 2.714844 42.875 C 2.425781 42.859375 2.148438 42.898438 1.878906 42.996094 C 1.609375 43.089844 1.367188 43.234375 1.15625 43.425781 C 0.941406 43.617188 0.773438 43.839844 0.648438 44.097656 C 0.527344 44.355469 0.453125 44.628906 0.4375 44.914062 Z M 0.4375 44.914062 " clip-rule="nonzero"/></clipPath><clipPath id="57b2abc766"><path d="M 47 39 L 68 39 L 68 60 L 47 60 Z M 47 39 " clip-rule="nonzero"/></clipPath><clipPath id="73476e4779"><path d="M 62.671875 39.957031 C 63.125 39.949219 63.570312 40.007812 64.007812 40.128906 C 64.445312 40.253906 64.855469 40.4375 65.238281 40.683594 C 65.621094 40.929688 65.957031 41.222656 66.253906 41.570312 C 66.546875 41.917969 66.785156 42.296875 66.964844 42.714844 C 67.898438 44.722656 67.519531 46.695312 65.9375 48.296875 C 63.242188 51.019531 60.515625 53.710938 57.808594 56.414062 C 57.183594 57.039062 56.582031 57.691406 55.9375 58.28125 C 55.710938 58.496094 55.464844 58.6875 55.199219 58.851562 C 54.933594 59.019531 54.652344 59.160156 54.359375 59.269531 C 54.066406 59.382812 53.765625 59.464844 53.457031 59.519531 C 53.148438 59.570312 52.835938 59.59375 52.523438 59.585938 C 52.210938 59.578125 51.902344 59.539062 51.59375 59.472656 C 51.289062 59.402344 50.992188 59.304688 50.707031 59.179688 C 50.417969 59.054688 50.148438 58.902344 49.890625 58.722656 C 49.632812 58.542969 49.394531 58.339844 49.179688 58.113281 C 48.957031 57.882812 48.761719 57.636719 48.585938 57.371094 C 48.414062 57.101562 48.269531 56.820312 48.152344 56.523438 C 48.03125 56.230469 47.945312 55.925781 47.886719 55.613281 C 47.828125 55.300781 47.800781 54.984375 47.804688 54.664062 C 47.8125 54.347656 47.84375 54.03125 47.910156 53.722656 C 47.976562 53.410156 48.074219 53.109375 48.199219 52.816406 C 48.324219 52.523438 48.476562 52.246094 48.65625 51.980469 C 48.835938 51.71875 49.039062 51.476562 49.269531 51.253906 C 52.476562 48.011719 55.71875 44.800781 58.949219 41.582031 C 59.964844 40.550781 61.144531 39.863281 62.671875 39.957031 Z M 62.671875 39.957031 " clip-rule="nonzero"/></clipPath><clipPath id="f026476169"><path d="M 16 39 L 36 39 L 36 60 L 16 60 Z M 16 39 " clip-rule="nonzero"/></clipPath><clipPath id="aa14935df3"><path d="M 20.945312 39.957031 C 20.492188 39.949219 20.046875 40.007812 19.609375 40.128906 C 19.171875 40.253906 18.761719 40.4375 18.378906 40.683594 C 17.996094 40.929688 17.65625 41.222656 17.363281 41.570312 C 17.070312 41.917969 16.832031 42.296875 16.648438 42.714844 C 15.714844 44.722656 16.09375 46.695312 17.679688 48.296875 C 20.371094 51.019531 23.097656 53.710938 25.804688 56.414062 C 26.433594 57.039062 27.03125 57.691406 27.675781 58.28125 C 27.902344 58.496094 28.148438 58.6875 28.414062 58.851562 C 28.679688 59.019531 28.960938 59.160156 29.25 59.269531 C 29.542969 59.382812 29.84375 59.464844 30.152344 59.519531 C 30.460938 59.570312 30.773438 59.59375 31.085938 59.585938 C 31.398438 59.578125 31.710938 59.539062 32.015625 59.472656 C 32.320312 59.402344 32.617188 59.304688 32.902344 59.179688 C 33.191406 59.054688 33.460938 58.898438 33.71875 58.722656 C 33.976562 58.542969 34.214844 58.339844 34.429688 58.113281 C 34.652344 57.882812 34.847656 57.636719 35.023438 57.371094 C 35.195312 57.101562 35.339844 56.820312 35.460938 56.527344 C 35.578125 56.230469 35.664062 55.925781 35.722656 55.613281 C 35.78125 55.300781 35.808594 54.984375 35.804688 54.667969 C 35.800781 54.347656 35.765625 54.03125 35.699219 53.722656 C 35.632812 53.410156 35.539062 53.109375 35.414062 52.816406 C 35.289062 52.523438 35.136719 52.246094 34.957031 51.984375 C 34.777344 51.71875 34.574219 51.476562 34.347656 51.253906 C 31.136719 48.011719 27.894531 44.800781 24.660156 41.582031 C 23.652344 40.550781 22.46875 39.863281 20.945312 39.957031 Z M 20.945312 39.957031 " clip-rule="nonzero"/></clipPath><clipPath id="db1c93826d"><path d="M 57 18.050781 L 78 18.050781 L 78 38 L 57 38 Z M 57 18.050781 " clip-rule="nonzero"/></clipPath><clipPath id="998b8b0059"><path d="M 72.226562 37.671875 C 71.015625 37.648438 70 37.199219 69.167969 36.320312 C 65.800781 32.96875 62.417969 29.636719 59.085938 26.25 C 58.875 26.027344 58.683594 25.785156 58.511719 25.527344 C 58.34375 25.265625 58.203125 24.992188 58.089844 24.707031 C 57.972656 24.421875 57.886719 24.125 57.824219 23.820312 C 57.765625 23.515625 57.738281 23.210938 57.738281 22.902344 C 57.738281 22.59375 57.765625 22.285156 57.824219 21.980469 C 57.886719 21.679688 57.972656 21.382812 58.089844 21.09375 C 58.203125 20.808594 58.34375 20.535156 58.511719 20.277344 C 58.683594 20.015625 58.875 19.773438 59.085938 19.550781 C 60.921875 17.683594 63.894531 17.472656 65.773438 19.277344 C 69.277344 22.640625 72.71875 26.066406 76.097656 29.554688 C 76.449219 29.890625 76.734375 30.277344 76.960938 30.707031 C 77.1875 31.136719 77.339844 31.59375 77.417969 32.074219 C 77.496094 32.550781 77.496094 33.03125 77.417969 33.511719 C 77.34375 33.992188 77.191406 34.449219 76.964844 34.878906 C 76.089844 36.738281 74.554688 37.753906 72.226562 37.671875 Z M 72.226562 37.671875 " clip-rule="nonzero"/></clipPath><clipPath id="b3f98ab6af"><path d="M 37 18.050781 L 58 18.050781 L 58 38 L 37 38 Z M 37 18.050781 " clip-rule="nonzero"/></clipPath><clipPath id="0ac5892cc8"><path d="M 52.570312 37.730469 C 51.972656 37.75 51.394531 37.652344 50.835938 37.433594 C 50.28125 37.214844 49.789062 36.894531 49.367188 36.472656 C 45.921875 33.046875 42.457031 29.648438 39.085938 26.195312 C 37.265625 24.328125 37.425781 21.46875 39.3125 19.527344 C 39.527344 19.3125 39.757812 19.117188 40.007812 18.945312 C 40.261719 18.773438 40.527344 18.625 40.804688 18.503906 C 41.085938 18.382812 41.375 18.289062 41.671875 18.226562 C 41.96875 18.160156 42.269531 18.125 42.574219 18.117188 C 42.878906 18.109375 43.179688 18.132812 43.480469 18.183594 C 43.78125 18.234375 44.074219 18.3125 44.359375 18.421875 C 44.644531 18.527344 44.917969 18.664062 45.175781 18.824219 C 45.433594 18.984375 45.675781 19.167969 45.898438 19.375 C 48.558594 21.914062 51.148438 24.59375 53.78125 27.207031 C 54.5625 27.988281 55.375 28.742188 56.117188 29.542969 C 56.449219 29.882812 56.726562 30.261719 56.945312 30.683594 C 57.164062 31.101562 57.316406 31.546875 57.398438 32.015625 C 57.484375 32.480469 57.496094 32.953125 57.4375 33.421875 C 57.375 33.894531 57.25 34.34375 57.050781 34.777344 C 56.265625 36.738281 54.710938 37.71875 52.570312 37.730469 Z M 52.570312 37.730469 " clip-rule="nonzero"/></clipPath><clipPath id="c317a8e6af"><path d="M 7 29 L 17 29 L 17 38 L 7 38 Z M 7 29 " clip-rule="nonzero"/></clipPath><clipPath id="dd15473b8a"><path d="M 12.117188 37.707031 C 11.585938 37.710938 11.074219 37.613281 10.578125 37.421875 C 10.082031 37.226562 9.640625 36.949219 9.253906 36.585938 C 8.867188 36.222656 8.558594 35.800781 8.335938 35.316406 C 8.109375 34.835938 7.980469 34.332031 7.949219 33.800781 C 7.867188 31.675781 9.820312 29.652344 11.972656 29.597656 C 12.511719 29.597656 13.03125 29.699219 13.53125 29.90625 C 14.03125 30.109375 14.472656 30.402344 14.859375 30.78125 C 15.242188 31.160156 15.542969 31.597656 15.753906 32.097656 C 15.96875 32.59375 16.078125 33.109375 16.089844 33.652344 C 16.089844 34.183594 15.988281 34.691406 15.789062 35.183594 C 15.589844 35.675781 15.304688 36.109375 14.933594 36.492188 C 14.5625 36.871094 14.132812 37.164062 13.644531 37.375 C 13.15625 37.585938 12.648438 37.695312 12.117188 37.707031 Z M 12.117188 37.707031 " clip-rule="nonzero"/></clipPath><clipPath id="974f4a3526"><path d="M 37 41 L 46 41 L 46 50 L 37 50 Z M 37 41 " clip-rule="nonzero"/></clipPath><clipPath id="2e078e8c71"><path d="M 41.714844 41.015625 C 41.976562 41.027344 42.238281 41.066406 42.492188 41.132812 C 42.75 41.195312 42.996094 41.285156 43.234375 41.398438 C 43.472656 41.511719 43.699219 41.648438 43.910156 41.804688 C 44.121094 41.964844 44.316406 42.140625 44.496094 42.335938 C 44.671875 42.53125 44.828125 42.742188 44.964844 42.96875 C 45.097656 43.195312 45.210938 43.433594 45.300781 43.683594 C 45.390625 43.929688 45.453125 44.1875 45.492188 44.449219 C 45.53125 44.710938 45.542969 44.972656 45.53125 45.234375 C 45.519531 45.5 45.480469 45.757812 45.417969 46.015625 C 45.351562 46.273438 45.265625 46.519531 45.152344 46.757812 C 45.039062 46.996094 44.902344 47.222656 44.746094 47.4375 C 44.589844 47.648438 44.414062 47.84375 44.21875 48.019531 C 44.023438 48.199219 43.8125 48.355469 43.585938 48.492188 C 43.359375 48.628906 43.125 48.742188 42.875 48.832031 C 42.625 48.921875 42.371094 48.988281 42.109375 49.027344 C 41.847656 49.066406 41.585938 49.078125 41.324219 49.066406 C 41.058594 49.054688 40.800781 49.019531 40.542969 48.957031 C 40.285156 48.890625 40.039062 48.804688 39.796875 48.695312 C 39.558594 48.582031 39.332031 48.449219 39.121094 48.292969 C 38.90625 48.136719 38.710938 47.960938 38.53125 47.765625 C 38.355469 47.570312 38.195312 47.359375 38.058594 47.132812 C 37.921875 46.910156 37.808594 46.671875 37.71875 46.421875 C 37.625 46.175781 37.5625 45.921875 37.519531 45.660156 C 37.480469 45.398438 37.464844 45.136719 37.476562 44.871094 C 37.484375 44.605469 37.523438 44.34375 37.585938 44.082031 C 37.648438 43.824219 37.734375 43.574219 37.847656 43.332031 C 37.960938 43.089844 38.09375 42.863281 38.253906 42.648438 C 38.410156 42.433594 38.589844 42.234375 38.785156 42.054688 C 38.984375 41.875 39.195312 41.71875 39.425781 41.578125 C 39.652344 41.441406 39.894531 41.328125 40.144531 41.238281 C 40.394531 41.152344 40.652344 41.085938 40.917969 41.046875 C 41.183594 41.011719 41.445312 41 41.714844 41.015625 Z M 41.714844 41.015625 " clip-rule="nonzero"/></clipPath><clipPath id="cfa6b99287"><path d="M 69 52 L 76 52 L 76 60 L 69 60 Z M 69 52 " clip-rule="nonzero"/></clipPath><clipPath id="ad45b87c95"><path d="M 75.90625 55.765625 C 75.910156 56.210938 75.828125 56.640625 75.660156 57.050781 C 75.492188 57.464844 75.25 57.828125 74.9375 58.144531 C 74.625 58.460938 74.265625 58.707031 73.855469 58.878906 C 73.445312 59.050781 73.019531 59.140625 72.574219 59.144531 C 72.128906 59.144531 71.699219 59.0625 71.289062 58.894531 C 70.875 58.726562 70.511719 58.488281 70.195312 58.175781 C 69.878906 57.863281 69.632812 57.5 69.460938 57.089844 C 69.289062 56.679688 69.199219 56.253906 69.199219 55.808594 C 69.195312 55.363281 69.277344 54.9375 69.445312 54.523438 C 69.613281 54.113281 69.851562 53.746094 70.164062 53.429688 C 70.476562 53.113281 70.839844 52.871094 71.25 52.699219 C 71.660156 52.523438 72.085938 52.4375 72.53125 52.433594 C 72.976562 52.429688 73.402344 52.515625 73.816406 52.679688 C 74.226562 52.847656 74.59375 53.089844 74.910156 53.402344 C 75.226562 53.714844 75.46875 54.074219 75.644531 54.484375 C 75.816406 54.894531 75.902344 55.324219 75.90625 55.765625 Z M 75.90625 55.765625 " clip-rule="nonzero"/></clipPath><clipPath id="16d7b2e091"><path d="M 9 52 L 16 52 L 16 60 L 9 60 Z M 9 52 " clip-rule="nonzero"/></clipPath><clipPath id="9452cf1d3d"><path d="M 12.515625 59.191406 C 12.070312 59.183594 11.644531 59.089844 11.238281 58.914062 C 10.832031 58.738281 10.476562 58.488281 10.167969 58.171875 C 9.855469 57.851562 9.621094 57.488281 9.457031 57.074219 C 9.292969 56.664062 9.210938 56.238281 9.214844 55.792969 C 9.222656 55.351562 9.308594 54.921875 9.484375 54.515625 C 9.65625 54.105469 9.902344 53.746094 10.214844 53.4375 C 10.53125 53.125 10.894531 52.882812 11.304688 52.714844 C 11.714844 52.546875 12.140625 52.464844 12.585938 52.464844 C 13.03125 52.464844 13.457031 52.550781 13.867188 52.71875 C 14.277344 52.890625 14.636719 53.132812 14.953125 53.445312 C 15.265625 53.757812 15.507812 54.117188 15.679688 54.527344 C 15.851562 54.933594 15.941406 55.359375 15.945312 55.804688 C 15.953125 56.261719 15.871094 56.699219 15.699219 57.121094 C 15.527344 57.542969 15.28125 57.914062 14.957031 58.234375 C 14.632812 58.554688 14.257812 58.796875 13.832031 58.964844 C 13.410156 59.128906 12.96875 59.207031 12.515625 59.191406 Z M 12.515625 59.191406 " clip-rule="nonzero"/></clipPath><clipPath id="ab7addb81d"><path d="M 0 42 L 5 42 L 5 48 L 0 48 Z M 0 42 " clip-rule="nonzero"/></clipPath><clipPath id="1f01e53fec"><path d="M 0.4375 44.914062 C 0.453125 44.628906 0.519531 44.351562 0.644531 44.09375 C 0.765625 43.832031 0.933594 43.605469 1.148438 43.410156 C 1.359375 43.21875 1.601562 43.070312 1.875 42.976562 C 2.144531 42.878906 2.425781 42.835938 2.714844 42.851562 C 3 42.867188 3.273438 42.941406 3.53125 43.0625 C 3.792969 43.1875 4.019531 43.355469 4.214844 43.566406 C 4.410156 43.777344 4.558594 44.019531 4.660156 44.285156 C 4.761719 44.554688 4.8125 44.832031 4.804688 45.121094 C 4.773438 45.402344 4.6875 45.671875 4.558594 45.925781 C 4.429688 46.183594 4.257812 46.40625 4.046875 46.597656 C 3.835938 46.792969 3.597656 46.941406 3.332031 47.050781 C 3.070312 47.160156 2.792969 47.21875 2.507812 47.226562 C 2.222656 47.199219 1.953125 47.117188 1.695312 46.988281 C 1.441406 46.859375 1.214844 46.6875 1.023438 46.472656 C 0.832031 46.257812 0.6875 46.015625 0.585938 45.75 C 0.484375 45.480469 0.433594 45.203125 0.4375 44.914062 Z M 0.4375 44.914062 " clip-rule="nonzero"/></clipPath><clipPath id="cbe079faed"><path d="M 101 19 L 107 19 L 107 25 L 101 25 Z M 101 19 " clip-rule="nonzero"/></clipPath><clipPath id="508ba92108"><path d="M 106.109375 22.070312 C 106.101562 22.367188 106.042969 22.648438 105.929688 22.921875 C 105.816406 23.195312 105.65625 23.4375 105.449219 23.652344 C 105.246094 23.867188 105.007812 24.035156 104.738281 24.160156 C 104.472656 24.28125 104.191406 24.355469 103.894531 24.371094 C 103.621094 24.355469 103.355469 24.289062 103.105469 24.171875 C 102.851562 24.058594 102.628906 23.90625 102.433594 23.710938 C 102.238281 23.515625 102.078125 23.296875 101.964844 23.042969 C 101.847656 22.792969 101.777344 22.53125 101.753906 22.257812 C 101.742188 21.96875 101.789062 21.6875 101.886719 21.417969 C 101.988281 21.148438 102.136719 20.90625 102.332031 20.695312 C 102.527344 20.480469 102.757812 20.316406 103.019531 20.195312 C 103.28125 20.074219 103.554688 20.007812 103.84375 19.996094 C 104.132812 19.984375 104.410156 20.027344 104.683594 20.125 C 104.953125 20.226562 105.195312 20.371094 105.40625 20.566406 C 105.621094 20.761719 105.785156 20.992188 105.910156 21.253906 C 106.03125 21.515625 106.097656 21.789062 106.109375 22.078125 Z M 106.109375 22.070312 " clip-rule="nonzero"/></clipPath><clipPath id="e04dcacd25"><path d="M 0 20 L 5 20 L 5 25 L 0 25 Z M 0 20 " clip-rule="nonzero"/></clipPath><clipPath id="053400c2be"><path d="M 4.800781 22.070312 C 4.792969 22.367188 4.734375 22.648438 4.617188 22.921875 C 4.503906 23.195312 4.34375 23.4375 4.140625 23.652344 C 3.933594 23.867188 3.695312 24.035156 3.429688 24.160156 C 3.160156 24.28125 2.878906 24.355469 2.582031 24.371094 C 2.304688 24.355469 2.042969 24.289062 1.789062 24.175781 C 1.535156 24.0625 1.3125 23.910156 1.113281 23.714844 C 0.917969 23.519531 0.761719 23.296875 0.644531 23.046875 C 0.527344 22.796875 0.460938 22.53125 0.4375 22.257812 C 0.425781 21.96875 0.472656 21.6875 0.570312 21.417969 C 0.671875 21.148438 0.820312 20.90625 1.019531 20.695312 C 1.214844 20.484375 1.445312 20.320312 1.707031 20.199219 C 1.972656 20.082031 2.246094 20.019531 2.535156 20.007812 C 2.824219 19.992188 3.101562 20.035156 3.375 20.128906 C 3.644531 20.226562 3.886719 20.371094 4.101562 20.566406 C 4.3125 20.757812 4.480469 20.984375 4.601562 21.246094 C 4.722656 21.507812 4.789062 21.78125 4.800781 22.070312 Z M 4.800781 22.070312 " clip-rule="nonzero"/></clipPath><clipPath id="7587592410"><path d="M 159 20 L 164.25 20 L 164.25 25 L 159 25 Z M 159 20 " clip-rule="nonzero"/></clipPath><clipPath id="36512eaa6b"><path d="M 162.003906 20.003906 C 162.289062 20.007812 162.566406 20.066406 162.832031 20.183594 C 163.09375 20.296875 163.328125 20.457031 163.527344 20.664062 C 163.726562 20.875 163.875 21.113281 163.980469 21.378906 C 164.085938 21.648438 164.132812 21.925781 164.125 22.214844 C 164.117188 22.503906 164.054688 22.78125 163.933594 23.046875 C 163.816406 23.3125 163.652344 23.546875 163.441406 23.746094 C 163.230469 23.945312 162.988281 24.097656 162.71875 24.199219 C 162.449219 24.304688 162.167969 24.351562 161.875 24.34375 C 161.585938 24.335938 161.308594 24.273438 161.042969 24.15625 C 160.777344 24.039062 160.546875 23.875 160.347656 23.664062 C 160.144531 23.453125 159.996094 23.210938 159.890625 22.941406 C 159.785156 22.667969 159.738281 22.386719 159.746094 22.097656 C 159.753906 21.808594 159.816406 21.53125 159.9375 21.269531 C 160.054688 21.003906 160.222656 20.773438 160.433594 20.578125 C 160.648438 20.378906 160.890625 20.230469 161.160156 20.132812 C 161.433594 20.035156 161.714844 19.992188 162.003906 20.003906 Z M 162.003906 20.003906 " clip-rule="nonzero"/></clipPath></defs><g clip-path="url(#d09cd01c45)"><g clip-path="url(#729b0d437c)"><path fill="#ffffff" d="M 17.746094 18.109375 L 17.746094 37.75 L 37.996094 37.75 L 37.996094 18.109375 Z M 17.746094 18.109375 " fill-opacity="1" fill-rule="nonzero"/></g></g><g clip-path="url(#62d5b61b1b)"><g clip-path="url(#34bbf56383)"><path fill="#ffffff" d="M 130.859375 27.957031 L 130.859375 60.050781 L 164.25 60.050781 L 164.25 27.957031 Z M 130.859375 27.957031 " fill-opacity="1" fill-rule="nonzero"/></g></g><g clip-path="url(#f1de150742)"><g clip-path="url(#38709cf3bc)"><path fill="#ffffff" d="M 143.601562 18.152344 L 143.601562 26.328125 L 151.65625 26.328125 L 151.65625 18.152344 Z M 143.601562 18.152344 " fill-opacity="1" fill-rule="nonzero"/></g></g><g clip-path="url(#c77b60af97)"><g clip-path="url(#8f3bb3e94c)"><path fill="#ffffff" d="M 109.054688 28.464844 L 109.054688 48.699219 L 128.722656 48.699219 L 128.722656 28.464844 Z M 109.054688 28.464844 " fill-opacity="1" fill-rule="nonzero"/></g></g><g clip-path="url(#1d3141b5d6)"><g clip-path="url(#38ecf01560)"><path fill="#ffffff" d="M 89.882812 51.78125 L 89.882812 59.882812 L 98.011719 59.882812 L 98.011719 51.78125 Z M 89.882812 51.78125 " fill-opacity="1" fill-rule="nonzero"/></g></g><g clip-path="url(#ad5345ad9b)"><g clip-path="url(#57a17f7f1b)"><path fill="#ffffff" d="M 109.707031 51.769531 L 109.707031 59.898438 L 117.925781 59.898438 L 117.925781 51.769531 Z M 109.707031 51.769531 " fill-opacity="1" fill-rule="nonzero"/></g></g><g clip-path="url(#56868e64b3)"><g clip-path="url(#28208a1413)"><path fill="#ffffff" d="M 119.8125 18.207031 L 119.8125 26.234375 L 127.882812 26.234375 L 127.882812 18.207031 Z M 119.8125 18.207031 " fill-opacity="1" fill-rule="nonzero"/></g></g><g clip-path="url(#8972f81c8d)"><g clip-path="url(#eac00293d3)"><path fill="#ffffff" d="M 100.136719 41.011719 L 100.136719 49.074219 L 108.195312 49.074219 L 108.195312 41.011719 Z M 100.136719 41.011719 " fill-opacity="1" fill-rule="nonzero"/></g></g><g clip-path="url(#d448cad659)"><g clip-path="url(#31fe538bfd)"><path fill="#ffffff" d="M 90.085938 30.085938 L 90.085938 36.867188 L 96.832031 36.867188 L 96.832031 30.085938 Z M 90.085938 30.085938 " fill-opacity="1" fill-rule="nonzero"/></g></g><g clip-path="url(#ed2eb844a9)"><g clip-path="url(#b28785f6e2)"><path fill="#ffffff" d="M 79.855469 41.660156 L 79.855469 48.441406 L 86.648438 48.441406 L 86.648438 41.660156 Z M 79.855469 41.660156 " fill-opacity="1" fill-rule="nonzero"/></g></g><g clip-path="url(#da7744b4ec)"><g clip-path="url(#466969165d)"><path fill="#ffffff" d="M 80.816406 19.992188 L 80.816406 24.347656 L 85.195312 24.347656 L 85.195312 19.992188 Z M 80.816406 19.992188 " fill-opacity="1" fill-rule="nonzero"/></g></g><g clip-path="url(#7b04b0aaba)"><g clip-path="url(#ecf981d8a1)"><path fill="#ffffff" d="M 0.433594 42.859375 L 0.433594 47.25 L 4.8125 47.25 L 4.8125 42.859375 Z M 0.433594 42.859375 " fill-opacity="1" fill-rule="nonzero"/></g></g><g clip-path="url(#57b2abc766)"><g clip-path="url(#73476e4779)"><path fill="#ffffff" d="M 47.800781 39.863281 L 47.800781 59.59375 L 67.898438 59.59375 L 67.898438 39.863281 Z M 47.800781 39.863281 " fill-opacity="1" fill-rule="nonzero"/></g></g><g clip-path="url(#f026476169)"><g clip-path="url(#aa14935df3)"><path fill="#ffffff" d="M 15.714844 39.863281 L 15.714844 59.59375 L 35.808594 59.59375 L 35.808594 39.863281 Z M 15.714844 39.863281 " fill-opacity="1" fill-rule="nonzero"/></g></g><g clip-path="url(#db1c93826d)"><g clip-path="url(#998b8b0059)"><path fill="#ffffff" d="M 57.738281 18.050781 L 57.738281 37.753906 L 77.496094 37.753906 L 77.496094 18.050781 Z M 57.738281 18.050781 " fill-opacity="1" fill-rule="nonzero"/></g></g><g clip-path="url(#b3f98ab6af)"><g clip-path="url(#0ac5892cc8)"><path fill="#ffffff" d="M 37.265625 18.109375 L 37.265625 37.75 L 57.496094 37.75 L 57.496094 18.109375 Z M 37.265625 18.109375 " fill-opacity="1" fill-rule="nonzero"/></g></g><g clip-path="url(#c317a8e6af)"><g clip-path="url(#dd15473b8a)"><path fill="#ffffff" d="M 7.867188 29.597656 L 7.867188 37.710938 L 16.089844 37.710938 L 16.089844 29.597656 Z M 7.867188 29.597656 " fill-opacity="1" fill-rule="nonzero"/></g></g><g clip-path="url(#974f4a3526)"><g clip-path="url(#2e078e8c71)"><path fill="#ffffff" d="M 37.464844 41 L 37.464844 49.078125 L 45.542969 49.078125 L 45.542969 41 Z M 37.464844 41 " fill-opacity="1" fill-rule="nonzero"/></g></g><g clip-path="url(#cfa6b99287)"><g clip-path="url(#ad45b87c95)"><path fill="#ffffff" d="M 69.195312 52.429688 L 69.195312 59.144531 L 75.910156 59.144531 L 75.910156 52.429688 Z M 69.195312 52.429688 " fill-opacity="1" fill-rule="nonzero"/></g></g><g clip-path="url(#16d7b2e091)"><g clip-path="url(#9452cf1d3d)"><path fill="#ffffff" d="M 9.210938 52.464844 L 9.210938 59.207031 L 15.953125 59.207031 L 15.953125 52.464844 Z M 9.210938 52.464844 " fill-opacity="1" fill-rule="nonzero"/></g></g><g clip-path="url(#ab7addb81d)"><g clip-path="url(#1f01e53fec)"><path fill="#ffffff" d="M 0.433594 42.835938 L 0.433594 47.226562 L 4.8125 47.226562 L 4.8125 42.835938 Z M 0.433594 42.835938 " fill-opacity="1" fill-rule="nonzero"/></g></g><g clip-path="url(#cbe079faed)"><g clip-path="url(#508ba92108)"><path fill="#ffffff" d="M 101.742188 19.984375 L 101.742188 24.371094 L 106.109375 24.371094 L 106.109375 19.984375 Z M 101.742188 19.984375 " fill-opacity="1" fill-rule="nonzero"/></g></g><g clip-path="url(#e04dcacd25)"><g clip-path="url(#053400c2be)"><path fill="#ffffff" d="M 0.425781 19.992188 L 0.425781 24.371094 L 4.800781 24.371094 L 4.800781 19.992188 Z M 0.425781 19.992188 " fill-opacity="1" fill-rule="nonzero"/></g></g><g clip-path="url(#7587592410)"><g clip-path="url(#36512eaa6b)"><path fill="#ffffff" d="M 159.738281 19.992188 L 159.738281 24.351562 L 164.132812 24.351562 L 164.132812 19.992188 Z M 159.738281 19.992188 " fill-opacity="1" fill-rule="nonzero"/></g></g><g fill="#ffffff" fill-opacity="1"><g transform="translate(213.332144, 36.734732)"><g><path d="M 7.703125 -16.3125 C 8.648438 -16.3125 9.476562 -16.144531 10.1875 -15.8125 C 10.894531 -15.488281 11.484375 -15.046875 11.953125 -14.484375 C 12.421875 -13.929688 12.773438 -13.3125 13.015625 -12.625 C 13.253906 -11.9375 13.375 -11.238281 13.375 -10.53125 C 13.375 -9.59375 13.160156 -8.6875 12.734375 -7.8125 C 12.316406 -6.9375 11.6875 -6.21875 10.84375 -5.65625 C 10.007812 -5.09375 8.960938 -4.8125 7.703125 -4.8125 L 5.109375 -4.8125 L 5.109375 0 L 1.15625 0 L 1.15625 -16.3125 Z M 7.703125 -8.53125 C 8.316406 -8.53125 8.769531 -8.734375 9.0625 -9.140625 C 9.363281 -9.546875 9.515625 -9.988281 9.515625 -10.46875 C 9.515625 -10.957031 9.363281 -11.414062 9.0625 -11.84375 C 8.769531 -12.269531 8.316406 -12.484375 7.703125 -12.484375 L 5.109375 -12.484375 L 5.109375 -8.53125 Z M 7.703125 -8.53125 "/></g></g></g><g fill="#ffffff" fill-opacity="1"><g transform="translate(227.999531, 36.734732)"><g><path d="M 8.546875 -9.90625 L 12.796875 -16.171875 L 15.90625 -16.171875 L 15.90625 0 L 11.96875 0 L 11.96875 -8 L 9.640625 -4.546875 L 7.4375 -4.546875 L 5.109375 -8.046875 L 5.109375 0 L 1.15625 0 L 1.15625 -16.171875 L 4.296875 -16.171875 Z M 8.546875 -9.90625 "/></g></g></g><g fill="#ffffff" fill-opacity="1"><g transform="translate(245.715794, 36.734732)"><g/></g></g><g fill="#ffffff" fill-opacity="1"><g transform="translate(252.091157, 36.734732)"><g><path d="M 4.734375 -8.0625 C 4.734375 -7.050781 4.945312 -6.203125 5.375 -5.515625 C 5.8125 -4.835938 6.367188 -4.328125 7.046875 -3.984375 C 7.722656 -3.648438 8.429688 -3.484375 9.171875 -3.484375 C 9.804688 -3.484375 10.414062 -3.609375 11 -3.859375 C 11.582031 -4.109375 12.09375 -4.472656 12.53125 -4.953125 C 12.976562 -5.441406 13.285156 -6.054688 13.453125 -6.796875 L 17.453125 -6.796875 C 17.242188 -5.390625 16.75 -4.160156 15.96875 -3.109375 C 15.195312 -2.054688 14.222656 -1.234375 13.046875 -0.640625 C 11.867188 -0.0546875 10.578125 0.234375 9.171875 0.234375 C 8.015625 0.234375 6.929688 0.0234375 5.921875 -0.390625 C 4.910156 -0.804688 4.019531 -1.390625 3.25 -2.140625 C 2.488281 -2.890625 1.890625 -3.765625 1.453125 -4.765625 C 1.023438 -5.773438 0.8125 -6.875 0.8125 -8.0625 C 0.8125 -9.25 1.023438 -10.347656 1.453125 -11.359375 C 1.890625 -12.378906 2.488281 -13.265625 3.25 -14.015625 C 4.019531 -14.773438 4.910156 -15.367188 5.921875 -15.796875 C 6.929688 -16.222656 8.015625 -16.4375 9.171875 -16.4375 C 10.554688 -16.4375 11.84375 -16.140625 13.03125 -15.546875 C 14.21875 -14.960938 15.203125 -14.144531 15.984375 -13.09375 C 16.773438 -12.050781 17.253906 -10.835938 17.421875 -9.453125 L 13.421875 -9.453125 C 13.253906 -10.171875 12.953125 -10.765625 12.515625 -11.234375 C 12.078125 -11.710938 11.5625 -12.066406 10.96875 -12.296875 C 10.382812 -12.535156 9.785156 -12.65625 9.171875 -12.65625 C 8.429688 -12.65625 7.722656 -12.484375 7.046875 -12.140625 C 6.367188 -11.804688 5.8125 -11.300781 5.375 -10.625 C 4.945312 -9.945312 4.734375 -9.09375 4.734375 -8.0625 Z M 4.734375 -8.0625 "/></g></g></g><g fill="#ffffff" fill-opacity="1"><g transform="translate(270.846821, 36.734732)"><g><path d="M 1.171875 -8.0625 C 1.171875 -9.25 1.382812 -10.347656 1.8125 -11.359375 C 2.25 -12.378906 2.851562 -13.265625 3.625 -14.015625 C 4.394531 -14.773438 5.285156 -15.367188 6.296875 -15.796875 C 7.304688 -16.222656 8.390625 -16.4375 9.546875 -16.4375 C 10.703125 -16.4375 11.785156 -16.222656 12.796875 -15.796875 C 13.816406 -15.367188 14.707031 -14.773438 15.46875 -14.015625 C 16.226562 -13.265625 16.828125 -12.378906 17.265625 -11.359375 C 17.710938 -10.347656 17.9375 -9.25 17.9375 -8.0625 C 17.9375 -6.894531 17.710938 -5.804688 17.265625 -4.796875 C 16.828125 -3.785156 16.226562 -2.90625 15.46875 -2.15625 C 14.707031 -1.414062 13.816406 -0.832031 12.796875 -0.40625 C 11.785156 0.0195312 10.703125 0.234375 9.546875 0.234375 C 8.390625 0.234375 7.304688 0.0234375 6.296875 -0.390625 C 5.285156 -0.804688 4.394531 -1.390625 3.625 -2.140625 C 2.851562 -2.890625 2.25 -3.765625 1.8125 -4.765625 C 1.382812 -5.773438 1.171875 -6.875 1.171875 -8.0625 Z M 5.109375 -8.0625 C 5.109375 -7.050781 5.316406 -6.203125 5.734375 -5.515625 C 6.160156 -4.835938 6.707031 -4.332031 7.375 -4 C 8.050781 -3.675781 8.757812 -3.515625 9.5 -3.515625 C 10.238281 -3.515625 10.945312 -3.679688 11.625 -4.015625 C 12.3125 -4.359375 12.867188 -4.867188 13.296875 -5.546875 C 13.734375 -6.222656 13.953125 -7.0625 13.953125 -8.0625 C 13.953125 -9.082031 13.734375 -9.929688 13.296875 -10.609375 C 12.867188 -11.285156 12.320312 -11.789062 11.65625 -12.125 C 10.988281 -12.46875 10.285156 -12.640625 9.546875 -12.640625 C 8.804688 -12.640625 8.097656 -12.46875 7.421875 -12.125 C 6.742188 -11.789062 6.1875 -11.285156 5.75 -10.609375 C 5.320312 -9.941406 5.109375 -9.09375 5.109375 -8.0625 Z M 5.109375 -8.0625 "/></g></g></g><g fill="#ffffff" fill-opacity="1"><g transform="translate(290.526388, 36.734732)"><g><path d="M 9.796875 -16.171875 L 13.703125 -16.171875 L 13.703125 0 L 10.609375 0 L 5.078125 -7.875 L 5.078125 0 L 1.15625 0 L 1.15625 -16.171875 L 4.203125 -16.171875 L 9.796875 -8.09375 Z M 9.796875 -16.171875 "/></g></g></g><g fill="#ffffff" fill-opacity="1"><g transform="translate(306.025292, 36.734732)"><g><path d="M 9.796875 -16.171875 L 13.703125 -16.171875 L 13.703125 0 L 10.609375 0 L 5.078125 -7.875 L 5.078125 0 L 1.15625 0 L 1.15625 -16.171875 L 4.203125 -16.171875 L 9.796875 -8.09375 Z M 9.796875 -16.171875 "/></g></g></g><g fill="#ffffff" fill-opacity="1"><g transform="translate(321.52419, 36.734732)"><g><path d="M 1.15625 -16.3125 L 11.8125 -16.3125 L 11.8125 -12.5 L 5.125 -12.5 L 5.125 -10.234375 L 11.671875 -10.234375 L 11.671875 -6.40625 L 5.125 -6.40625 L 5.125 -3.8125 L 11.828125 -3.8125 L 11.828125 0 L 1.15625 0 Z M 1.15625 -16.3125 "/></g></g></g><g fill="#ffffff" fill-opacity="1"><g transform="translate(334.990509, 36.734732)"><g><path d="M 4.734375 -8.0625 C 4.734375 -7.050781 4.945312 -6.203125 5.375 -5.515625 C 5.8125 -4.835938 6.367188 -4.328125 7.046875 -3.984375 C 7.722656 -3.648438 8.429688 -3.484375 9.171875 -3.484375 C 9.804688 -3.484375 10.414062 -3.609375 11 -3.859375 C 11.582031 -4.109375 12.09375 -4.472656 12.53125 -4.953125 C 12.976562 -5.441406 13.285156 -6.054688 13.453125 -6.796875 L 17.453125 -6.796875 C 17.242188 -5.390625 16.75 -4.160156 15.96875 -3.109375 C 15.195312 -2.054688 14.222656 -1.234375 13.046875 -0.640625 C 11.867188 -0.0546875 10.578125 0.234375 9.171875 0.234375 C 8.015625 0.234375 6.929688 0.0234375 5.921875 -0.390625 C 4.910156 -0.804688 4.019531 -1.390625 3.25 -2.140625 C 2.488281 -2.890625 1.890625 -3.765625 1.453125 -4.765625 C 1.023438 -5.773438 0.8125 -6.875 0.8125 -8.0625 C 0.8125 -9.25 1.023438 -10.347656 1.453125 -11.359375 C 1.890625 -12.378906 2.488281 -13.265625 3.25 -14.015625 C 4.019531 -14.773438 4.910156 -15.367188 5.921875 -15.796875 C 6.929688 -16.222656 8.015625 -16.4375 9.171875 -16.4375 C 10.554688 -16.4375 11.84375 -16.140625 13.03125 -15.546875 C 14.21875 -14.960938 15.203125 -14.144531 15.984375 -13.09375 C 16.773438 -12.050781 17.253906 -10.835938 17.421875 -9.453125 L 13.421875 -9.453125 C 13.253906 -10.171875 12.953125 -10.765625 12.515625 -11.234375 C 12.078125 -11.710938 11.5625 -12.066406 10.96875 -12.296875 C 10.382812 -12.535156 9.785156 -12.65625 9.171875 -12.65625 C 8.429688 -12.65625 7.722656 -12.484375 7.046875 -12.140625 C 6.367188 -11.804688 5.8125 -11.300781 5.375 -10.625 C 4.945312 -9.945312 4.734375 -9.09375 4.734375 -8.0625 Z M 4.734375 -8.0625 "/></g></g></g><g fill="#ffffff" fill-opacity="1"><g transform="translate(353.746172, 36.734732)"><g><path d="M 13.421875 -16.359375 L 13.421875 -12.65625 L 9.078125 -12.65625 L 9.078125 0 L 5.125 0 L 5.125 -12.65625 L 0.765625 -12.65625 L 0.765625 -16.359375 Z M 13.421875 -16.359375 "/></g></g></g><g fill="#ffffff" fill-opacity="1"><g transform="translate(227.455521, 61.703321)"><g><path d="M 4.734375 -8.0625 C 4.734375 -7.050781 4.945312 -6.203125 5.375 -5.515625 C 5.8125 -4.835938 6.367188 -4.328125 7.046875 -3.984375 C 7.722656 -3.648438 8.429688 -3.484375 9.171875 -3.484375 C 9.804688 -3.484375 10.414062 -3.609375 11 -3.859375 C 11.582031 -4.109375 12.09375 -4.472656 12.53125 -4.953125 C 12.976562 -5.441406 13.285156 -6.054688 13.453125 -6.796875 L 17.453125 -6.796875 C 17.242188 -5.390625 16.75 -4.160156 15.96875 -3.109375 C 15.195312 -2.054688 14.222656 -1.234375 13.046875 -0.640625 C 11.867188 -0.0546875 10.578125 0.234375 9.171875 0.234375 C 8.015625 0.234375 6.929688 0.0234375 5.921875 -0.390625 C 4.910156 -0.804688 4.019531 -1.390625 3.25 -2.140625 C 2.488281 -2.890625 1.890625 -3.765625 1.453125 -4.765625 C 1.023438 -5.773438 0.8125 -6.875 0.8125 -8.0625 C 0.8125 -9.25 1.023438 -10.347656 1.453125 -11.359375 C 1.890625 -12.378906 2.488281 -13.265625 3.25 -14.015625 C 4.019531 -14.773438 4.910156 -15.367188 5.921875 -15.796875 C 6.929688 -16.222656 8.015625 -16.4375 9.171875 -16.4375 C 10.554688 -16.4375 11.84375 -16.140625 13.03125 -15.546875 C 14.21875 -14.960938 15.203125 -14.144531 15.984375 -13.09375 C 16.773438 -12.050781 17.253906 -10.835938 17.421875 -9.453125 L 13.421875 -9.453125 C 13.253906 -10.171875 12.953125 -10.765625 12.515625 -11.234375 C 12.078125 -11.710938 11.5625 -12.066406 10.96875 -12.296875 C 10.382812 -12.535156 9.785156 -12.65625 9.171875 -12.65625 C 8.429688 -12.65625 7.722656 -12.484375 7.046875 -12.140625 C 6.367188 -11.804688 5.8125 -11.300781 5.375 -10.625 C 4.945312 -9.945312 4.734375 -9.09375 4.734375 -8.0625 Z M 4.734375 -8.0625 "/></g></g></g><g fill="#ffffff" fill-opacity="1"><g transform="translate(246.211183, 61.703321)"><g><path d="M 1.171875 -8.0625 C 1.171875 -9.25 1.382812 -10.347656 1.8125 -11.359375 C 2.25 -12.378906 2.851562 -13.265625 3.625 -14.015625 C 4.394531 -14.773438 5.285156 -15.367188 6.296875 -15.796875 C 7.304688 -16.222656 8.390625 -16.4375 9.546875 -16.4375 C 10.703125 -16.4375 11.785156 -16.222656 12.796875 -15.796875 C 13.816406 -15.367188 14.707031 -14.773438 15.46875 -14.015625 C 16.226562 -13.265625 16.828125 -12.378906 17.265625 -11.359375 C 17.710938 -10.347656 17.9375 -9.25 17.9375 -8.0625 C 17.9375 -6.894531 17.710938 -5.804688 17.265625 -4.796875 C 16.828125 -3.785156 16.226562 -2.90625 15.46875 -2.15625 C 14.707031 -1.414062 13.816406 -0.832031 12.796875 -0.40625 C 11.785156 0.0195312 10.703125 0.234375 9.546875 0.234375 C 8.390625 0.234375 7.304688 0.0234375 6.296875 -0.390625 C 5.285156 -0.804688 4.394531 -1.390625 3.625 -2.140625 C 2.851562 -2.890625 2.25 -3.765625 1.8125 -4.765625 C 1.382812 -5.773438 1.171875 -6.875 1.171875 -8.0625 Z M 5.109375 -8.0625 C 5.109375 -7.050781 5.316406 -6.203125 5.734375 -5.515625 C 6.160156 -4.835938 6.707031 -4.332031 7.375 -4 C 8.050781 -3.675781 8.757812 -3.515625 9.5 -3.515625 C 10.238281 -3.515625 10.945312 -3.679688 11.625 -4.015625 C 12.3125 -4.359375 12.867188 -4.867188 13.296875 -5.546875 C 13.734375 -6.222656 13.953125 -7.0625 13.953125 -8.0625 C 13.953125 -9.082031 13.734375 -9.929688 13.296875 -10.609375 C 12.867188 -11.285156 12.320312 -11.789062 11.65625 -12.125 C 10.988281 -12.46875 10.285156 -12.640625 9.546875 -12.640625 C 8.804688 -12.640625 8.097656 -12.46875 7.421875 -12.125 C 6.742188 -11.789062 6.1875 -11.285156 5.75 -10.609375 C 5.320312 -9.941406 5.109375 -9.09375 5.109375 -8.0625 Z M 5.109375 -8.0625 "/></g></g></g><g fill="#ffffff" fill-opacity="1"><g transform="translate(265.890749, 61.703321)"><g><path d="M 9.796875 -16.171875 L 13.703125 -16.171875 L 13.703125 0 L 10.609375 0 L 5.078125 -7.875 L 5.078125 0 L 1.15625 0 L 1.15625 -16.171875 L 4.203125 -16.171875 L 9.796875 -8.09375 Z M 9.796875 -16.171875 "/></g></g></g><g fill="#ffffff" fill-opacity="1"><g transform="translate(281.38965, 61.703321)"><g><path d="M 11.625 -12.546875 L 5.078125 -12.546875 L 5.078125 -9.515625 L 11.25 -9.515625 L 11.25 -5.84375 L 5.078125 -5.84375 L 5.078125 0 L 1.15625 0 L 1.15625 -16.3125 L 11.625 -16.3125 Z M 11.625 -12.546875 "/></g></g></g><g fill="#ffffff" fill-opacity="1"><g transform="translate(294.601888, 61.703321)"><g/></g></g><g fill="#ffffff" fill-opacity="1"><g transform="translate(300.977254, 61.703321)"><g><path d="M 0.109375 -10.21875 C 0.109375 -11.382812 0.347656 -12.4375 0.828125 -13.375 C 1.304688 -14.320312 1.988281 -15.066406 2.875 -15.609375 C 3.757812 -16.160156 4.804688 -16.4375 6.015625 -16.4375 C 7.472656 -16.4375 8.644531 -16.171875 9.53125 -15.640625 C 10.414062 -15.109375 11.054688 -14.414062 11.453125 -13.5625 C 11.859375 -12.71875 12.0625 -11.828125 12.0625 -10.890625 C 12.0625 -10.054688 11.847656 -9.234375 11.421875 -8.421875 C 11.003906 -7.609375 10.398438 -6.878906 9.609375 -6.234375 L 6.375 -3.703125 L 12 -3.703125 L 12 0 L 0.140625 0 L 0.140625 -2.84375 L 6.9375 -9.03125 C 7.289062 -9.34375 7.570312 -9.660156 7.78125 -9.984375 C 7.988281 -10.316406 8.09375 -10.640625 8.09375 -10.953125 C 8.09375 -11.398438 7.914062 -11.789062 7.5625 -12.125 C 7.207031 -12.46875 6.691406 -12.640625 6.015625 -12.640625 C 5.472656 -12.640625 4.992188 -12.414062 4.578125 -11.96875 C 4.171875 -11.519531 3.96875 -10.9375 3.96875 -10.21875 Z M 0.109375 -10.21875 "/></g></g></g><g fill="#ffffff" fill-opacity="1"><g transform="translate(315.298183, 61.703321)"><g><path d="M 6.515625 0.328125 C 5.441406 0.328125 4.492188 0.101562 3.671875 -0.34375 C 2.859375 -0.789062 2.175781 -1.398438 1.625 -2.171875 C 1.082031 -2.941406 0.675781 -3.820312 0.40625 -4.8125 C 0.132812 -5.8125 0 -6.863281 0 -7.96875 C 0 -9.113281 0.132812 -10.1875 0.40625 -11.1875 C 0.675781 -12.195312 1.082031 -13.09375 1.625 -13.875 C 2.175781 -14.65625 2.859375 -15.265625 3.671875 -15.703125 C 4.492188 -16.140625 5.441406 -16.359375 6.515625 -16.359375 C 7.609375 -16.359375 8.5625 -16.140625 9.375 -15.703125 C 10.195312 -15.265625 10.878906 -14.65625 11.421875 -13.875 C 11.972656 -13.09375 12.382812 -12.195312 12.65625 -11.1875 C 12.9375 -10.1875 13.078125 -9.113281 13.078125 -7.96875 C 13.078125 -6.863281 12.9375 -5.8125 12.65625 -4.8125 C 12.382812 -3.820312 11.972656 -2.941406 11.421875 -2.171875 C 10.878906 -1.398438 10.195312 -0.789062 9.375 -0.34375 C 8.5625 0.101562 7.609375 0.328125 6.515625 0.328125 Z M 6.515625 -12.5 C 5.671875 -12.5 5.039062 -12.09375 4.625 -11.28125 C 4.207031 -10.476562 4 -9.375 4 -7.96875 C 4 -7.132812 4.085938 -6.378906 4.265625 -5.703125 C 4.453125 -5.023438 4.734375 -4.484375 5.109375 -4.078125 C 5.492188 -3.679688 5.960938 -3.484375 6.515625 -3.484375 C 7.097656 -3.484375 7.578125 -3.679688 7.953125 -4.078125 C 8.335938 -4.484375 8.617188 -5.023438 8.796875 -5.703125 C 8.984375 -6.378906 9.078125 -7.132812 9.078125 -7.96875 C 9.078125 -9.375 8.863281 -10.476562 8.4375 -11.28125 C 8.019531 -12.09375 7.378906 -12.5 6.515625 -12.5 Z M 6.515625 -12.5 "/></g></g></g><g fill="#ffffff" fill-opacity="1"><g transform="translate(330.566105, 61.703321)"><g><path d="M 0.109375 -10.21875 C 0.109375 -11.382812 0.347656 -12.4375 0.828125 -13.375 C 1.304688 -14.320312 1.988281 -15.066406 2.875 -15.609375 C 3.757812 -16.160156 4.804688 -16.4375 6.015625 -16.4375 C 7.472656 -16.4375 8.644531 -16.171875 9.53125 -15.640625 C 10.414062 -15.109375 11.054688 -14.414062 11.453125 -13.5625 C 11.859375 -12.71875 12.0625 -11.828125 12.0625 -10.890625 C 12.0625 -10.054688 11.847656 -9.234375 11.421875 -8.421875 C 11.003906 -7.609375 10.398438 -6.878906 9.609375 -6.234375 L 6.375 -3.703125 L 12 -3.703125 L 12 0 L 0.140625 0 L 0.140625 -2.84375 L 6.9375 -9.03125 C 7.289062 -9.34375 7.570312 -9.660156 7.78125 -9.984375 C 7.988281 -10.316406 8.09375 -10.640625 8.09375 -10.953125 C 8.09375 -11.398438 7.914062 -11.789062 7.5625 -12.125 C 7.207031 -12.46875 6.691406 -12.640625 6.015625 -12.640625 C 5.472656 -12.640625 4.992188 -12.414062 4.578125 -11.96875 C 4.171875 -11.519531 3.96875 -10.9375 3.96875 -10.21875 Z M 0.109375 -10.21875 "/></g></g></g><g fill="#ffffff" fill-opacity="1"><g transform="translate(344.887034, 61.703321)"><g><path d="M 3.421875 -5.359375 C 3.492188 -4.773438 3.75 -4.335938 4.1875 -4.046875 C 4.632812 -3.765625 5.101562 -3.625 5.59375 -3.625 C 6.132812 -3.625 6.625 -3.785156 7.0625 -4.109375 C 7.507812 -4.429688 7.734375 -4.898438 7.734375 -5.515625 C 7.734375 -6.046875 7.597656 -6.46875 7.328125 -6.78125 C 7.066406 -7.09375 6.726562 -7.320312 6.3125 -7.46875 C 5.90625 -7.625 5.488281 -7.703125 5.0625 -7.703125 C 4.300781 -7.703125 3.351562 -7.367188 2.21875 -6.703125 L 0.140625 -7.625 L 0.140625 -16.390625 L 10.765625 -16.390625 L 10.765625 -12.828125 L 3.84375 -12.828125 L 3.84375 -10.703125 C 4.207031 -10.804688 4.570312 -10.882812 4.9375 -10.9375 C 5.300781 -10.988281 5.660156 -11.015625 6.015625 -11.015625 C 7.015625 -11.015625 7.929688 -10.800781 8.765625 -10.375 C 9.609375 -9.945312 10.285156 -9.332031 10.796875 -8.53125 C 11.304688 -7.726562 11.5625 -6.75 11.5625 -5.59375 C 11.5625 -4.882812 11.4375 -4.1875 11.1875 -3.5 C 10.9375 -2.8125 10.5625 -2.1875 10.0625 -1.625 C 9.5625 -1.0625 8.941406 -0.613281 8.203125 -0.28125 C 7.460938 0.0390625 6.59375 0.203125 5.59375 0.203125 C 4.6875 0.203125 3.800781 0.0390625 2.9375 -0.28125 C 2.082031 -0.613281 1.375 -1.148438 0.8125 -1.890625 C 0.257812 -2.628906 -0.0390625 -3.59375 -0.09375 -4.78125 Z M 3.421875 -5.359375 "/></g></g></g></svg>